<svg width="190" height="70" viewBox="0 0 190 70" fill="none" xmlns="http://www.w3.org/2000/svg">
<path d="M160.84 8.88143L175.42 0L190 8.88143V27.4164L175.42 36.6839L160.84 27.4164V8.88143Z" fill="#F8ECD9"/>
<path d="M160.84 8.88143L175.42 0L190 8.88143V27.4164L175.42 36.6839L160.84 27.4164V8.88143Z" fill="#F8ECD9"/>
<path d="M89.7181 8.88143L104.298 0L119.234 8.88143V27.4164L104.298 36.6839L89.7181 27.4164V8.88143Z" fill="#F8ECD9"/>
<path d="M89.7181 8.88143L104.298 0L119.234 8.88143V27.4164L104.298 36.6839L89.7181 27.4164V8.88143Z" fill="#F8ECD9"/>
<path d="M18.5978 8.88143L33.5327 0L48.1128 8.88143V27.4164L33.5327 36.6839L18.5978 27.4164V8.88143Z" fill="#F8ECD9"/>
<path d="M18.5978 8.88143L33.5327 0L48.1128 8.88143V27.4164L33.5327 36.6839L18.5978 27.4164V8.88143Z" fill="#F8ECD9"/>
<path d="M101.455 40.5467V59.0818L86.5189 68.3493L71.9388 59.0818V40.5467L86.5189 31.2793L101.455 40.5467Z" fill="#F8ECD9"/>
<path d="M101.455 40.5467V59.0818L86.5189 68.3493L71.9388 59.0818V40.5467L86.5189 31.2793L101.455 40.5467Z" fill="#F8ECD9"/>
<path d="M65.8926 40.5467V59.0818L51.3125 68.3493L36.3768 59.0818V40.5467L51.3125 31.2793L65.8926 40.5467Z" fill="#F8ECD9"/>
<path d="M65.8926 40.5467V59.0818L51.3125 68.3493L36.3768 59.0818V40.5467L51.3125 31.2793L65.8926 40.5467Z" fill="#F8ECD9"/>
<path d="M30.332 40.5467V59.0818L15.7514 68.3493L0.816049 59.0818V40.5467L15.7514 31.2793L30.332 40.5467Z" fill="#F8ECD9"/>
<path d="M30.332 40.5467V59.0818L15.7514 68.3493L0.816049 59.0818V40.5467L15.7514 31.2793L30.332 40.5467Z" fill="#F8ECD9"/>
</svg>
