<svg width="1391" height="572" viewBox="0 0 1391 572" fill="none" xmlns="http://www.w3.org/2000/svg">
<path d="M160.84 8.88143L175.42 0L190 8.88143V27.4164L175.42 36.6839L160.84 27.4164V8.88143Z" fill="#F8ECD9"/>
<path d="M160.84 8.88143L175.42 0L190 8.88143V27.4164L175.42 36.6839L160.84 27.4164V8.88143Z" fill="#F8ECD9"/>
<path d="M89.7181 8.88143L104.298 0L119.234 8.88143V27.4164L104.298 36.6839L89.7181 27.4164V8.88143Z" fill="#F8ECD9"/>
<path d="M89.7181 8.88143L104.298 0L119.234 8.88143V27.4164L104.298 36.6839L89.7181 27.4164V8.88143Z" fill="#F8ECD9"/>
<path d="M18.5978 8.88143L33.5327 0L48.1128 8.88143V27.4164L33.5327 36.6839L18.5978 27.4164V8.88143Z" fill="#F8ECD9"/>
<path d="M18.5978 8.88143L33.5327 0L48.1128 8.88143V27.4164L33.5327 36.6839L18.5978 27.4164V8.88143Z" fill="#F8ECD9"/>
<path d="M101.455 40.5467V59.0818L86.5189 68.3493L71.9388 59.0818V40.5467L86.5189 31.2793L101.455 40.5467Z" fill="#F8ECD9"/>
<path d="M101.455 40.5467V59.0818L86.5189 68.3493L71.9388 59.0818V40.5467L86.5189 31.2793L101.455 40.5467Z" fill="#F8ECD9"/>
<path d="M65.8926 40.5467V59.0818L51.3125 68.3493L36.3768 59.0818V40.5467L51.3125 31.2793L65.8926 40.5467Z" fill="#F8ECD9"/>
<path d="M65.8926 40.5467V59.0818L51.3125 68.3493L36.3768 59.0818V40.5467L51.3125 31.2793L65.8926 40.5467Z" fill="#F8ECD9"/>
<path d="M30.332 40.5467V59.0818L15.7514 68.3493L0.816049 59.0818V40.5467L15.7514 31.2793L30.332 40.5467Z" fill="#F8ECD9"/>
<path d="M30.332 40.5467V59.0818L15.7514 68.3493L0.816049 59.0818V40.5467L15.7514 31.2793L30.332 40.5467Z" fill="#F8ECD9"/>
<path d="M1230.16 510.881L1215.58 502L1201 510.881V529.416L1215.58 538.684L1230.16 529.416V510.881Z" fill="#F8ECD9"/>
<path d="M1230.16 510.881L1215.58 502L1201 510.881V529.416L1215.58 538.684L1230.16 529.416V510.881Z" fill="#F8ECD9"/>
<path d="M1301.28 510.881L1286.7 502L1271.77 510.881V529.416L1286.7 538.684L1301.28 529.416V510.881Z" fill="#F8ECD9"/>
<path d="M1301.28 510.881L1286.7 502L1271.77 510.881V529.416L1286.7 538.684L1301.28 529.416V510.881Z" fill="#F8ECD9"/>
<path d="M1372.4 510.881L1357.47 502L1342.89 510.881V529.416L1357.47 538.684L1372.4 529.416V510.881Z" fill="#F8ECD9"/>
<path d="M1372.4 510.881L1357.47 502L1342.89 510.881V529.416L1357.47 538.684L1372.4 529.416V510.881Z" fill="#F8ECD9"/>
<path d="M1289.55 542.547V561.082L1304.48 570.349L1319.06 561.082V542.547L1304.48 533.279L1289.55 542.547Z" fill="#F8ECD9"/>
<path d="M1289.55 542.547V561.082L1304.48 570.349L1319.06 561.082V542.547L1304.48 533.279L1289.55 542.547Z" fill="#F8ECD9"/>
<path d="M1325.11 542.547V561.082L1339.69 570.349L1354.62 561.082V542.547L1339.69 533.279L1325.11 542.547Z" fill="#F8ECD9"/>
<path d="M1325.11 542.547V561.082L1339.69 570.349L1354.62 561.082V542.547L1339.69 533.279L1325.11 542.547Z" fill="#F8ECD9"/>
<path d="M1360.67 542.547V561.082L1375.25 570.349L1390.18 561.082V542.547L1375.25 533.279L1360.67 542.547Z" fill="#F8ECD9"/>
<path d="M1360.67 542.547V561.082L1375.25 570.349L1390.18 561.082V542.547L1375.25 533.279L1360.67 542.547Z" fill="#F8ECD9"/>
</svg>
