<svg width="190" height="70" viewBox="0 0 190 70" fill="none" xmlns="http://www.w3.org/2000/svg">
<path d="M29.1599 8.88143L14.5799 0L0 8.88143V27.4164L14.5799 36.6839L29.1599 27.4164V8.88143Z" fill="#F8ECD9"/>
<path d="M29.1599 8.88143L14.5799 0L0 8.88143V27.4164L14.5799 36.6839L29.1599 27.4164V8.88143Z" fill="#F8ECD9"/>
<path d="M100.282 8.88143L85.7023 0L70.7666 8.88143V27.4164L85.7023 36.6839L100.282 27.4164V8.88143Z" fill="#F8ECD9"/>
<path d="M100.282 8.88143L85.7023 0L70.7666 8.88143V27.4164L85.7023 36.6839L100.282 27.4164V8.88143Z" fill="#F8ECD9"/>
<path d="M171.402 8.88143L156.467 0L141.887 8.88143V27.4164L156.467 36.6839L171.402 27.4164V8.88143Z" fill="#F8ECD9"/>
<path d="M171.402 8.88143L156.467 0L141.887 8.88143V27.4164L156.467 36.6839L171.402 27.4164V8.88143Z" fill="#F8ECD9"/>
<path d="M88.5459 40.5467V59.0818L103.482 68.3493L118.062 59.0818V40.5467L103.482 31.2793L88.5459 40.5467Z" fill="#F8ECD9"/>
<path d="M88.5459 40.5467V59.0818L103.482 68.3493L118.062 59.0818V40.5467L103.482 31.2793L88.5459 40.5467Z" fill="#F8ECD9"/>
<path d="M124.107 40.5467V59.0818L138.688 68.3493L153.623 59.0818V40.5467L138.688 31.2793L124.107 40.5467Z" fill="#F8ECD9"/>
<path d="M124.107 40.5467V59.0818L138.688 68.3493L153.623 59.0818V40.5467L138.688 31.2793L124.107 40.5467Z" fill="#F8ECD9"/>
<path d="M159.668 40.5467V59.0818L174.249 68.3493L189.184 59.0818V40.5467L174.249 31.2793L159.668 40.5467Z" fill="#F8ECD9"/>
<path d="M159.668 40.5467V59.0818L174.249 68.3493L189.184 59.0818V40.5467L174.249 31.2793L159.668 40.5467Z" fill="#F8ECD9"/>
</svg>
