<svg width="1387" height="582" viewBox="0 0 1387 582" fill="none" xmlns="http://www.w3.org/2000/svg">
<path d="M694 402.979H1156.37" stroke="#F8ECD9" stroke-miterlimit="10"/>
<path d="M694 373.607H1156.37" stroke="#F8ECD9" stroke-miterlimit="10"/>
<path d="M694 343.798H1156.37" stroke="#F8ECD9" stroke-miterlimit="10"/>
<path d="M694 313.988H1156.37" stroke="#F8ECD9" stroke-miterlimit="10"/>
<path d="M694 284.178H1156.37" stroke="#F8ECD9" stroke-miterlimit="10"/>
<path d="M694 254.807H1156.37" stroke="#F8ECD9" stroke-miterlimit="10"/>
<path d="M694 224.995H1156.37" stroke="#F8ECD9" stroke-miterlimit="10"/>
<path d="M694 195.187H1156.37" stroke="#F8ECD9" stroke-miterlimit="10"/>
<path d="M694 165.375H1156.37" stroke="#F8ECD9" stroke-miterlimit="10"/>
<path d="M694 136.005H1156.37" stroke="#F8ECD9" stroke-miterlimit="10"/>
<path d="M694 106.193H1156.37" stroke="#F8ECD9" stroke-miterlimit="10"/>
<path d="M694 76.3838H1156.37" stroke="#F8ECD9" stroke-miterlimit="10"/>
<path d="M835.586 165.584V502.263H1311.59V165.584H835.586Z" stroke="#F8ECD9" stroke-miterlimit="10"/>
<path d="M835.586 165.584V502.263H1311.59V165.584H835.586Z" stroke="black" stroke-opacity="0.2" stroke-miterlimit="10"/>
<g clip-path="url(#clip0_213_22)">
<path d="M156.254 582H0V435.281C0 434.065 0.867264 433.152 2.02362 433.152C3.17999 433.152 4.0473 434.065 4.0473 435.281V577.895H156.254C157.41 577.895 158.277 578.807 158.277 580.024C158.277 581.088 157.41 582 156.254 582Z" fill="#F8ECD9"/>
<path d="M156.254 582H0V435.281C0 434.065 0.867264 433.152 2.02362 433.152C3.17999 433.152 4.0473 434.065 4.0473 435.281V577.895H156.254C157.41 577.895 158.277 578.807 158.277 580.024C158.277 581.088 157.41 582 156.254 582Z" fill="black" fill-opacity="0.2"/>
<path d="M156.254 569.381H13.4424V435.281C13.4424 434.065 14.3097 433.152 15.466 433.152C16.6224 433.152 17.4897 434.065 17.4897 435.281V565.124H156.254C157.41 565.124 158.277 566.036 158.277 567.252C158.277 568.317 157.41 569.381 156.254 569.381Z" fill="#F8ECD9"/>
<path d="M156.254 569.381H13.4424V435.281C13.4424 434.065 14.3097 433.152 15.466 433.152C16.6224 433.152 17.4897 434.065 17.4897 435.281V565.124H156.254C157.41 565.124 158.277 566.036 158.277 567.252C158.277 568.317 157.41 569.381 156.254 569.381Z" fill="black" fill-opacity="0.2"/>
<path d="M156.254 556.609H27.0303V435.129C27.0303 433.912 27.8975 433 29.0539 433C30.2103 433 31.0775 433.912 31.0775 435.129V552.352H156.254C157.41 552.352 158.277 553.264 158.277 554.481C158.277 555.697 157.41 556.609 156.254 556.609Z" fill="#F8ECD9"/>
<path d="M156.254 556.609H27.0303V435.129C27.0303 433.912 27.8975 433 29.0539 433C30.2103 433 31.0775 433.912 31.0775 435.129V552.352H156.254C157.41 552.352 158.277 553.264 158.277 554.481C158.277 555.697 157.41 556.609 156.254 556.609Z" fill="black" fill-opacity="0.2"/>
<path d="M156.254 543.99H40.6167V435.129C40.6167 433.912 41.484 433 42.6403 433C43.7967 433 44.664 433.912 44.664 435.129V539.733H156.254C157.41 539.733 158.277 540.645 158.277 541.861C158.277 543.078 157.41 543.99 156.254 543.99Z" fill="#F8ECD9"/>
<path d="M156.254 543.99H40.6167V435.129C40.6167 433.912 41.484 433 42.6403 433C43.7967 433 44.664 433.912 44.664 435.129V539.733H156.254C157.41 539.733 158.277 540.645 158.277 541.861C158.277 543.078 157.41 543.99 156.254 543.99Z" fill="black" fill-opacity="0.2"/>
<path d="M156.254 531.371H54.0605V435.281C54.0605 434.065 54.9278 433.152 56.0842 433.152C57.2405 433.152 58.1078 434.065 58.1078 435.281V527.114H156.254C157.41 527.114 158.277 528.026 158.277 529.242C158.277 530.458 157.41 531.371 156.254 531.371Z" fill="#F8ECD9"/>
<path d="M156.254 531.371H54.0605V435.281C54.0605 434.065 54.9278 433.152 56.0842 433.152C57.2405 433.152 58.1078 434.065 58.1078 435.281V527.114H156.254C157.41 527.114 158.277 528.026 158.277 529.242C158.277 530.458 157.41 531.371 156.254 531.371Z" fill="black" fill-opacity="0.2"/>
</g>
<path d="M1382.96 79.5294C1381.81 79.5294 1380.95 78.4314 1380.95 77.3333C1381.67 53.6471 1381.67 28.8627 1381.67 4.86276C1329.77 4.86276 1280.62 4.86275 1229.16 4.39216C1228.01 4.39216 1227.14 3.451 1227.14 2.19609C1227.14 0.941191 1228.01 0 1229.16 0C1281.34 0.470588 1331.07 0.470593 1383.68 0.470593H1385.7V2.66667C1385.7 27.2941 1385.7 52.8627 1384.98 77.4902C1384.98 78.5882 1384.12 79.5294 1382.96 79.5294Z" fill="#F8ECD9"/>
<path d="M1382.96 79.5294C1381.81 79.5294 1380.95 78.4314 1380.95 77.3333C1381.67 53.6471 1381.67 28.8627 1381.67 4.86276C1329.77 4.86276 1280.62 4.86275 1229.16 4.39216C1228.01 4.39216 1227.14 3.451 1227.14 2.19609C1227.14 0.941191 1228.01 0 1229.16 0C1281.34 0.470588 1331.07 0.470593 1383.68 0.470593H1385.7V2.66667C1385.7 27.2941 1385.7 52.8627 1384.98 77.4902C1384.98 78.5882 1384.12 79.5294 1382.96 79.5294Z" fill="black" fill-opacity="0.2"/>
<path d="M1369.56 79.2162C1368.4 79.2162 1367.54 78.275 1367.54 77.0201C1367.25 56.7849 1367.25 36.7064 1367.25 17.2554C1321.7 17.2554 1274.86 17.2554 1229.16 17.2554C1228.01 17.2554 1227.14 16.3143 1227.14 15.0594C1227.14 13.8045 1228.01 12.8633 1229.16 12.8633C1275.58 12.8633 1323.14 12.8633 1369.27 12.8633H1371.29V15.0594C1371.29 35.1378 1371.29 55.8437 1371.58 76.8633C1371.58 78.1182 1370.57 79.2162 1369.56 79.2162Z" fill="#F8ECD9"/>
<path d="M1369.56 79.2162C1368.4 79.2162 1367.54 78.275 1367.54 77.0201C1367.25 56.7849 1367.25 36.7064 1367.25 17.2554C1321.7 17.2554 1274.86 17.2554 1229.16 17.2554C1228.01 17.2554 1227.14 16.3143 1227.14 15.0594C1227.14 13.8045 1228.01 12.8633 1229.16 12.8633C1275.58 12.8633 1323.14 12.8633 1369.27 12.8633H1371.29V15.0594C1371.29 35.1378 1371.29 55.8437 1371.58 76.8633C1371.58 78.1182 1370.57 79.2162 1369.56 79.2162Z" fill="black" fill-opacity="0.2"/>
<path d="M1356.01 79.2154C1354.86 79.2154 1353.99 78.2742 1353.99 77.0193C1354.28 61.4899 1354.28 44.8625 1354.28 29.9605C1313.05 29.9605 1270.53 29.9605 1229.16 30.588C1228.15 30.588 1227.14 29.6468 1227.14 28.3919C1227.14 27.137 1228.01 26.1958 1229.16 26.1958C1271.25 25.5684 1314.49 25.5684 1356.3 25.5684H1358.31V27.7644C1358.31 43.137 1358.31 60.7056 1358.03 77.1762C1358.03 78.2742 1357.16 79.2154 1356.01 79.2154Z" fill="#F8ECD9"/>
<path d="M1356.01 79.2154C1354.86 79.2154 1353.99 78.2742 1353.99 77.0193C1354.28 61.4899 1354.28 44.8625 1354.28 29.9605C1313.05 29.9605 1270.53 29.9605 1229.16 30.588C1228.15 30.588 1227.14 29.6468 1227.14 28.3919C1227.14 27.137 1228.01 26.1958 1229.16 26.1958C1271.25 25.5684 1314.49 25.5684 1356.3 25.5684H1358.31V27.7644C1358.31 43.137 1358.31 60.7056 1358.03 77.1762C1358.03 78.2742 1357.16 79.2154 1356.01 79.2154Z" fill="black" fill-opacity="0.2"/>
<path d="M1342.6 79.3723C1341.59 79.3723 1340.87 78.588 1340.59 77.6468C1339.43 71.0586 1339.72 64.6272 1340.01 58.3527C1340.3 53.6468 1340.44 48.9409 1340.01 43.9213C1303.68 43.9213 1266.21 43.9213 1229.02 43.4507C1227.86 43.4507 1227 42.5096 1227 41.2547C1227 39.9998 1227.86 39.0586 1229.02 39.0586C1266.78 39.5292 1304.84 39.5292 1341.74 39.5292H1343.47L1343.76 41.4115C1344.48 47.3723 1344.19 53.0194 1343.9 58.5096C1343.61 64.7841 1343.32 70.588 1344.48 76.7057C1344.62 77.9606 1344.05 79.0586 1342.89 79.2155C1342.89 79.3723 1342.75 79.3723 1342.6 79.3723Z" fill="#F8ECD9"/>
<path d="M1342.6 79.3723C1341.59 79.3723 1340.87 78.588 1340.59 77.6468C1339.43 71.0586 1339.72 64.6272 1340.01 58.3527C1340.3 53.6468 1340.44 48.9409 1340.01 43.9213C1303.68 43.9213 1266.21 43.9213 1229.02 43.4507C1227.86 43.4507 1227 42.5096 1227 41.2547C1227 39.9998 1227.86 39.0586 1229.02 39.0586C1266.78 39.5292 1304.84 39.5292 1341.74 39.5292H1343.47L1343.76 41.4115C1344.48 47.3723 1344.19 53.0194 1343.9 58.5096C1343.61 64.7841 1343.32 70.588 1344.48 76.7057C1344.62 77.9606 1344.05 79.0586 1342.89 79.2155C1342.89 79.3723 1342.75 79.3723 1342.6 79.3723Z" fill="black" fill-opacity="0.2"/>
<path d="M1329.05 79.5301C1327.9 79.5301 1327.04 78.5889 1327.04 77.334C1326.89 70.7458 1326.75 63.5301 1326.75 56.4713C1294.32 56.4713 1261.74 56.4713 1229.02 56.4713C1227.86 56.4713 1227 55.5301 1227 54.2752C1227 53.0203 1227.86 52.0791 1229.02 52.0791C1262.46 52.0791 1295.61 52.0791 1328.77 52.0791H1330.78V54.2752C1330.78 61.9615 1330.78 69.9615 1331.07 77.1771C1331.22 78.432 1330.35 79.3732 1329.05 79.5301C1329.2 79.5301 1329.2 79.5301 1329.05 79.5301Z" fill="#F8ECD9"/>
<path d="M1329.05 79.5301C1327.9 79.5301 1327.04 78.5889 1327.04 77.334C1326.89 70.7458 1326.75 63.5301 1326.75 56.4713C1294.32 56.4713 1261.74 56.4713 1229.02 56.4713C1227.86 56.4713 1227 55.5301 1227 54.2752C1227 53.0203 1227.86 52.0791 1229.02 52.0791C1262.46 52.0791 1295.61 52.0791 1328.77 52.0791H1330.78V54.2752C1330.78 61.9615 1330.78 69.9615 1331.07 77.1771C1331.22 78.432 1330.35 79.3732 1329.05 79.5301C1329.2 79.5301 1329.2 79.5301 1329.05 79.5301Z" fill="black" fill-opacity="0.2"/>
<defs>
<clipPath id="clip0_213_22">
<rect width="159" height="149" fill="white" transform="translate(0 433)"/>
</clipPath>
</defs>
</svg>
