<svg width="104" height="78" viewBox="0 0 104 78" fill="none" xmlns="http://www.w3.org/2000/svg">
<g opacity="0.5" clip-path="url(#clip0_181_1300)" filter="url(#filter0_d_181_1300)">
<path d="M9.42628 27.2503C9.42628 24.2654 10.6287 21.4027 12.7689 19.292C14.9092 17.1814 17.812 15.9956 20.8388 15.9956C23.8656 15.9956 26.7684 17.1814 28.9087 19.292C31.0489 21.4027 32.2513 24.2654 32.2513 27.2503V38.5157H20.8253C19.3267 38.5143 17.8431 38.2218 16.4591 37.6548C15.0752 37.0879 13.8181 36.2577 12.7595 35.2116C11.701 34.1654 10.8618 32.9239 10.2899 31.5579C9.71796 30.1919 9.4245 28.7282 9.42628 27.2503Z" fill="#808285"/>
<path opacity="0.74" d="M4 56.0817C4 59.7731 5.48696 63.3133 8.13377 65.9235C10.7806 68.5337 14.3704 70.0001 18.1136 70.0001C21.8567 70.0001 25.4465 68.5337 28.0933 65.9235C30.7402 63.3133 32.2271 59.7731 32.2271 56.0817V42.1606H18.0973C14.3567 42.1656 10.7711 43.6345 8.12786 46.2446C5.48464 48.8548 4 52.3929 4 56.0817Z" fill="#706F6F"/>
<path d="M74.0002 19.3338C74.0002 8.65768 65.0535 0 54.0195 0C42.9855 0 34.0497 8.64435 34.0361 19.3125V38.6623H54.0439C65.0643 38.6623 74.0002 30.0046 74.0002 19.3338Z" fill="#231F20"/>
</g>
<path d="M40.47 56V46.2H44.6C45.6453 46.2 46.5647 46.4053 47.358 46.816C48.1607 47.2267 48.7813 47.8007 49.22 48.538C49.668 49.2753 49.892 50.1293 49.892 51.1C49.892 52.0707 49.668 52.9247 49.22 53.662C48.7813 54.3993 48.1607 54.9733 47.358 55.384C46.5647 55.7947 45.6453 56 44.6 56H40.47ZM41.87 54.782H44.516C45.328 54.782 46.028 54.628 46.616 54.32C47.2133 54.012 47.6753 53.5827 48.002 53.032C48.3287 52.472 48.492 51.828 48.492 51.1C48.492 50.3627 48.3287 49.7187 48.002 49.168C47.6753 48.6173 47.2133 48.188 46.616 47.88C46.028 47.572 45.328 47.418 44.516 47.418H41.87V54.782ZM50.4157 56L54.8537 46.2H56.2397L60.6917 56H59.2217L55.2597 46.984H55.8197L51.8577 56H50.4157ZM52.3057 53.55L52.6837 52.43H58.1997L58.6057 53.55H52.3057ZM62.1536 56V46.2H63.5536V54.782H68.8596V56H62.1536ZM74.7124 56.112C73.9657 56.112 73.2704 55.986 72.6264 55.734C71.9917 55.482 71.441 55.132 70.9744 54.684C70.5077 54.2267 70.1437 53.6947 69.8824 53.088C69.621 52.4813 69.4904 51.8187 69.4904 51.1C69.4904 50.3813 69.621 49.7187 69.8824 49.112C70.1437 48.5053 70.5077 47.978 70.9744 47.53C71.441 47.0727 71.9917 46.718 72.6264 46.466C73.261 46.214 73.9564 46.088 74.7124 46.088C75.459 46.088 76.145 46.214 76.7704 46.466C77.405 46.7087 77.9557 47.0587 78.4224 47.516C78.8984 47.964 79.2624 48.4913 79.5144 49.098C79.7757 49.7047 79.9064 50.372 79.9064 51.1C79.9064 51.828 79.7757 52.4953 79.5144 53.102C79.2624 53.7087 78.8984 54.2407 78.4224 54.698C77.9557 55.146 77.405 55.496 76.7704 55.748C76.145 55.9907 75.459 56.112 74.7124 56.112ZM74.7124 54.866C75.2537 54.866 75.753 54.7727 76.2104 54.586C76.677 54.3993 77.0784 54.138 77.4144 53.802C77.7597 53.4567 78.0257 53.0553 78.2124 52.598C78.4084 52.1407 78.5064 51.6413 78.5064 51.1C78.5064 50.5587 78.4084 50.0593 78.2124 49.602C78.0257 49.1447 77.7597 48.748 77.4144 48.412C77.0784 48.0667 76.677 47.8007 76.2104 47.614C75.753 47.4273 75.2537 47.334 74.7124 47.334C74.1617 47.334 73.653 47.4273 73.1864 47.614C72.729 47.8007 72.3277 48.0667 71.9824 48.412C71.637 48.748 71.3664 49.1447 71.1704 49.602C70.9837 50.0593 70.8904 50.5587 70.8904 51.1C70.8904 51.6413 70.9837 52.1407 71.1704 52.598C71.3664 53.0553 71.637 53.4567 71.9824 53.802C72.3277 54.138 72.729 54.3993 73.1864 54.586C73.653 54.7727 74.1617 54.866 74.7124 54.866ZM86.4702 56.112C85.7235 56.112 85.0282 55.986 84.3842 55.734C83.7495 55.482 83.1988 55.132 82.7322 54.684C82.2655 54.2267 81.9015 53.6947 81.6402 53.088C81.3788 52.4813 81.2482 51.8187 81.2482 51.1C81.2482 50.3813 81.3788 49.7187 81.6402 49.112C81.9015 48.5053 82.2655 47.978 82.7322 47.53C83.1988 47.0727 83.7495 46.718 84.3842 46.466C85.0188 46.214 85.7142 46.088 86.4702 46.088C87.2168 46.088 87.9028 46.214 88.5282 46.466C89.1628 46.7087 89.7135 47.0587 90.1802 47.516C90.6562 47.964 91.0202 48.4913 91.2722 49.098C91.5335 49.7047 91.6642 50.372 91.6642 51.1C91.6642 51.828 91.5335 52.4953 91.2722 53.102C91.0202 53.7087 90.6562 54.2407 90.1802 54.698C89.7135 55.146 89.1628 55.496 88.5282 55.748C87.9028 55.9907 87.2168 56.112 86.4702 56.112ZM86.4702 54.866C87.0115 54.866 87.5108 54.7727 87.9682 54.586C88.4348 54.3993 88.8362 54.138 89.1722 53.802C89.5175 53.4567 89.7835 53.0553 89.9702 52.598C90.1662 52.1407 90.2642 51.6413 90.2642 51.1C90.2642 50.5587 90.1662 50.0593 89.9702 49.602C89.7835 49.1447 89.5175 48.748 89.1722 48.412C88.8362 48.0667 88.4348 47.8007 87.9682 47.614C87.5108 47.4273 87.0115 47.334 86.4702 47.334C85.9195 47.334 85.4108 47.4273 84.9442 47.614C84.4868 47.8007 84.0855 48.0667 83.7402 48.412C83.3948 48.748 83.1242 49.1447 82.9282 49.602C82.7415 50.0593 82.6482 50.5587 82.6482 51.1C82.6482 51.6413 82.7415 52.1407 82.9282 52.598C83.1242 53.0553 83.3948 53.4567 83.7402 53.802C84.0855 54.138 84.4868 54.3993 84.9442 54.586C85.4108 54.7727 85.9195 54.866 86.4702 54.866ZM100.832 46.2H102.232V56H100.832V46.2ZM95.204 56H93.804V46.2H95.204V56ZM100.958 51.632H95.064V50.414H100.958V51.632Z" fill="#808285"/>
<defs>
<filter id="filter0_d_181_1300" x="0" y="0" width="78" height="78" filterUnits="userSpaceOnUse" color-interpolation-filters="sRGB">
<feFlood flood-opacity="0" result="BackgroundImageFix"/>
<feColorMatrix in="SourceAlpha" type="matrix" values="0 0 0 0 0 0 0 0 0 0 0 0 0 0 0 0 0 0 127 0" result="hardAlpha"/>
<feOffset dy="4"/>
<feGaussianBlur stdDeviation="2"/>
<feComposite in2="hardAlpha" operator="out"/>
<feColorMatrix type="matrix" values="0 0 0 0 0 0 0 0 0 0 0 0 0 0 0 0 0 0 0.25 0"/>
<feBlend mode="normal" in2="BackgroundImageFix" result="effect1_dropShadow_181_1300"/>
<feBlend mode="normal" in="SourceGraphic" in2="effect1_dropShadow_181_1300" result="shape"/>
</filter>
<clipPath id="clip0_181_1300">
<rect width="70" height="70" fill="white" transform="translate(4)"/>
</clipPath>
</defs>
</svg>
