<?xml version="1.0" encoding="utf-8"?>
<!-- Generator: Adobe Illustrator 23.0.0, SVG Export Plug-In . SVG Version: 6.00 Build 0)  -->
<svg version="1.1" id="Layer_1" xmlns="http://www.w3.org/2000/svg" xmlns:xlink="http://www.w3.org/1999/xlink" x="0px" y="0px"
	 viewBox="0 0 595.28 841.89" style="enable-background:new 0 0 595.28 841.89;" xml:space="preserve">
<style type="text/css">
	.st0{fill-rule:evenodd;clip-rule:evenodd;fill:#BFC0C1;}
	.st1{enable-background:new    ;}
	.st2{clip-path:url(#SVGID_2_);}
	.st3{fill:#BFC0C1;}
	.st4{font-family:'ArialMT';}
	.st5{font-size:38.2969px;}
	.st6{fill-rule:evenodd;clip-rule:evenodd;}
	.st7{clip-path:url(#SVGID_4_);}
</style>
<g>
	<polygon class="st0" points="367.99,259.18 367.99,305.01 301.62,305.01 301.62,259.18 312.63,259.18 312.63,292.42 356.98,292.42 
		356.98,259.18 	"/>
	<path class="st0" d="M370.03,205.07v45.44h-11.01v-34.4h-44.29c-0.04,0-0.07,0.03-0.07,0.06v34.33h-11.01v-45.44h66.38V205.07z"/>
	<polygon class="st0" points="289.15,292.29 289.15,304.87 247.04,304.87 247.04,204.89 259.97,204.89 259.97,292.29 	"/>
	<path class="st0" d="M137.69,254.49c0,7.58-0.89,14.32-2.67,20.17c-1.78,5.87-4.07,10.73-6.86,14.58
		c-2.79,3.83-5.84,6.86-9.16,9.05c-3.29,2.21-7.29,3.89-11.97,5.04c-4.7,1.15-10.07,1.7-16.16,1.7l-36.02-0.01v-45.83h10.42v33.24
		h24.32c6.63-0.03,11.61,0.25,15.38-0.98c3.76-1.22,6.76-2.96,9.01-5.17c3.14-3.14,5.59-7.39,7.35-12.68
		c1.76-5.31,2.64-11.74,2.64-19.3c0-10.47-1.73-18.52-5.17-24.17c-3.43-5.63-7.62-9.39-12.55-11.3c-3.56-1.38-9.02-2.81-16.92-2.7
		H65.3v34.4H54.89v-45.5h34.4c7.8,0,13.76,0.46,17.89,1.42c5.75,1.33,10.67,3.72,14.73,7.17c5.31,4.47,9.25,10.14,11.87,17.08
		C136.39,237.65,137.69,245.57,137.69,254.49"/>
	<path class="st0" d="M232.5,304.94h-15.13l-11.62-30.45l-14.64-38.65c-3.2-8.45-5.33-14.22-7-19.74
		c-1.94,6.79-3.4,11.76-5.74,18.09l-14.91,40.28l-6.42,17.93h16.38V305h-34.96l38.29-99.98h14.76L232.5,304.94z"/>
	<polygon class="st0" points="451,259.18 451,304.89 384.62,304.89 384.62,259.18 395.65,259.18 395.65,292.42 439.99,292.42 
		439.99,259.18 	"/>
	<path class="st0" d="M451,205.08v45.44h-11.01v-34.4h-44.35c-0.04,0,0-0.14,0-0.11v34.51h-11.01v-45.44H451z"/>
	<path class="st0" d="M529.17,259.23v45.66h-63.64v-45.59c0-0.04,0.03-0.07,0.06-0.07H529.17z"/>
	<path class="st0" d="M529.17,204.93v45.66h-63.64V205c0-0.04,0.03-0.07,0.06-0.07H529.17z"/>
	<g class="st1">
		<g>
			<defs>
				<rect id="SVGID_1_" x="247.04" y="320.55" width="289.49" height="45.3"/>
			</defs>
			<clipPath id="SVGID_2_">
				<use xlink:href="#SVGID_1_"  style="overflow:visible;"/>
			</clipPath>
			<g class="st2">
				<text transform="matrix(1 0 0 1 247.0425 353.4159)" class="st3 st4 st5">www.dalooh.com</text>
			</g>
		</g>
	</g>
</g>
<g>
	<polygon class="st6" points="373.91,557.62 373.91,603.45 307.54,603.45 307.54,557.62 318.55,557.62 318.55,590.86 362.92,590.86 
		362.92,557.62 	"/>
	<path class="st6" d="M373.91,503.52v45.44H362.9v-34.4h-44.29c-0.04,0-0.07,0.03-0.07,0.06v34.33h-11.01v-45.44h66.38V503.52z"/>
	<polygon class="st6" points="293.04,590.72 293.04,603.31 250.92,603.31 250.92,503.33 263.86,503.33 263.86,590.72 	"/>
	<path class="st6" d="M141.59,552.93c0,7.58-0.89,14.32-2.67,20.17c-1.78,5.87-4.07,10.73-6.86,14.58
		c-2.79,3.83-5.84,6.86-9.16,9.05c-3.29,2.21-7.29,3.89-11.97,5.04c-4.7,1.15-10.07,1.7-16.16,1.7l-36.02-0.01v-45.83h10.42v33.24
		h24.32c6.63-0.03,11.61,0.25,15.38-0.98c3.76-1.22,6.76-2.96,9.01-5.17c3.14-3.14,5.59-7.39,7.35-12.68
		c1.76-5.31,2.64-11.74,2.64-19.3c0-10.47-1.73-18.52-5.17-24.17c-3.43-5.63-7.62-9.39-12.55-11.3c-3.56-1.38-9.02-2.81-16.92-2.7
		H69.2v34.4H58.79v-45.48h34.4c7.8,0,13.76,0.46,17.89,1.42c5.75,1.33,10.67,3.72,14.73,7.17c5.31,4.47,9.25,10.14,11.87,17.08
		C140.28,536.08,141.59,544.03,141.59,552.93"/>
	<path class="st6" d="M236.39,603.38h-15.13l-11.62-30.45L195,534.29c-3.2-8.45-5.33-14.22-7-19.74c-1.94,6.79-3.4,11.76-5.74,18.09
		l-14.91,40.28l-6.42,17.93h16.38v12.59h-34.96l38.29-99.98h14.76L236.39,603.38z"/>
	<polygon class="st6" points="454.9,557.62 454.9,603.33 388.52,603.33 388.52,557.62 399.53,557.62 399.53,590.86 443.88,590.86 
		443.88,557.62 	"/>
	<path class="st6" d="M454.9,503.52v45.44h-11.01v-34.4h-44.35c-0.04,0,0-0.14,0-0.11v34.51h-11.01v-45.44H454.9z"/>
	<path class="st6" d="M533.06,557.68v45.66h-63.64v-45.59c0-0.04,0.03-0.07,0.06-0.07H533.06z"/>
	<path class="st6" d="M533.06,503.37v45.66h-63.64v-45.59c0-0.04,0.03-0.07,0.06-0.07H533.06z"/>
	<g class="st1">
		<g>
			<defs>
				<rect id="SVGID_3_" x="250.93" y="618.69" width="289.49" height="45.3"/>
			</defs>
			<clipPath id="SVGID_4_">
				<use xlink:href="#SVGID_3_"  style="overflow:visible;"/>
			</clipPath>
			<g class="st7">
				<text transform="matrix(1 0 0 1 250.9316 651.559)" class="st4 st5">www.dalooh.com</text>
			</g>
		</g>
	</g>
</g>
</svg>
