<svg xmlns="http://www.w3.org/2000/svg" viewBox="0 0 342.89 72.39"><defs><style>.cls-1{fill:#1d1d1b;fill-rule:evenodd;}</style></defs><g id="Layer_2" data-name="Layer 2"><g id="Layer_1-2" data-name="Layer 1"><polygon class="cls-1" points="227.84 39.25 227.84 72.38 179.86 72.38 179.86 39.25 187.81 39.25 187.81 63.28 219.88 63.28 219.88 39.25 227.84 39.25"/><path class="cls-1" d="M227.84.13V33h-8V8.12h-32s-.05,0-.05,0V33h-7.95V.13Z"/><polygon class="cls-1" points="169.37 63.18 169.37 72.28 138.93 72.28 138.93 0 148.28 0 148.28 63.18 169.37 63.18"/><path class="cls-1" d="M59.88,35.86A50.45,50.45,0,0,1,58,50.44,35.62,35.62,0,0,1,53,61a26.08,26.08,0,0,1-6.62,6.54,26.72,26.72,0,0,1-8.66,3.63A49.88,49.88,0,0,1,26,72.39H0V39.25H7.53v24H25.1c4.79,0,8.4.18,11.12-.71a16.19,16.19,0,0,0,6.51-3.74A23.26,23.26,0,0,0,48,49.66a45.07,45.07,0,0,0,1.9-14q0-11.36-3.73-17.46t-9.08-8.17a32.15,32.15,0,0,0-12.23-2H7.53V33H0V.1H24.87a61,61,0,0,1,12.92,1A24.82,24.82,0,0,1,48.44,6.31,29.22,29.22,0,0,1,57,18.66,47.87,47.87,0,0,1,59.88,35.86Z"/><path class="cls-1" d="M128.42,72.32H117.48l-8.4-22L98.5,22.38c-2.32-6.1-3.85-10.28-5.06-14.27C92.05,13,91,16.62,89.29,21.2L78.51,50.32l-4.65,13H85.71v9.1H60.44L88.12.1H98.8Z"/><polygon class="cls-1" points="286.38 39.25 286.38 72.29 238.39 72.29 238.39 39.25 246.36 39.25 246.36 63.28 278.42 63.28 278.42 39.25 286.38 39.25"/><path class="cls-1" d="M286.38.14V33h-8V8.12H246.36s0-.11,0-.09V33h-8V.14Z"/><path class="cls-1" d="M342.89,39.28v33h-46v-33a0,0,0,0,1,0,0Z"/><path class="cls-1" d="M342.89,0V33h-46V.07a0,0,0,0,1,0,0Z"/></g></g></svg>