<svg width="67" height="51" viewBox="0 0 67 51" fill="none" xmlns="http://www.w3.org/2000/svg">
<path fill-rule="evenodd" clip-rule="evenodd" d="M33.5576 6.03279C34.5243 5.48677 35.6713 5.16896 36.8962 5.16896C38.6021 5.16896 40.1523 5.78358 41.2764 6.77201C42.4035 7.76324 43.103 9.13249 43.103 10.6403V18.013C43.103 19.518 42.4035 20.8859 41.2764 21.8771C40.1523 22.8655 38.6021 23.4801 36.8977 23.4801C35.1902 23.4801 33.6385 22.8669 32.5114 21.8771C31.3827 20.8859 30.6817 19.518 30.6817 18.013V15.7141C30.6817 15.5993 30.6313 15.4551 30.5488 15.3795C30.4664 15.3039 30.3533 15.2983 30.2266 15.2983H27.5126V18.0144C27.5126 19.5194 26.8116 20.8873 25.6829 21.8785C24.5573 22.8669 23.0041 23.4815 21.2966 23.4815C20.0397 23.4815 18.8682 23.1483 17.8877 22.5771C16.8767 21.9877 16.0688 21.1435 15.5861 20.1508C15.5021 19.9786 15.4624 19.7994 15.4609 19.6258C15.4594 19.3626 15.5449 19.1092 15.6961 18.895C15.8473 18.6808 16.0657 18.5058 16.3284 18.398C16.5056 18.3252 16.7026 18.2846 16.9118 18.2832L17.3379 18.2804C17.6418 18.279 17.9244 18.3672 18.1581 18.5198C18.3963 18.6766 18.5857 18.9006 18.6957 19.1624H18.6941C18.8774 19.5978 19.2333 19.9814 19.6976 20.2544C20.1481 20.519 20.6995 20.6772 21.2936 20.6772C22.0557 20.6772 22.746 20.4364 23.2439 20.0458C23.7311 19.665 24.0335 19.14 24.0335 18.566V15.2997H18.1382C17.2967 15.2997 16.533 14.9861 15.9817 14.4807C15.4304 13.9752 15.0882 13.2752 15.0882 12.5038V10.6445C15.0882 9.13809 15.7877 7.76885 16.9133 6.77622C18.0374 5.78638 19.5876 5.17176 21.2936 5.17176C23.0011 5.17176 24.5543 5.78638 25.6814 6.77622C26.8101 7.76745 27.5111 9.13669 27.5111 10.6445V12.4954H30.9841C31.8577 12.4954 32.6504 12.8202 33.2246 13.3452C33.7989 13.8702 34.1547 14.5969 34.1562 15.3977H34.1578V18.566C34.1578 19.1414 34.4602 19.665 34.9474 20.0458C35.4453 20.435 36.1356 20.6772 36.8977 20.6772C37.6583 20.6772 38.3471 20.435 38.845 20.0458C39.3307 19.665 39.6331 19.1414 39.6331 18.566L39.6315 10.0887C39.6315 9.5147 39.3291 8.99108 38.8419 8.60887C38.344 8.21826 37.6552 7.97605 36.8962 7.97745C36.3219 7.97745 35.7874 8.11606 35.346 8.35126C34.897 8.59067 34.5442 8.93088 34.3426 9.32709C34.1914 9.6253 33.9547 9.87451 33.6645 10.0509C33.3789 10.2231 33.0413 10.3239 32.684 10.3281H32.5969C32.3556 10.3309 32.1326 10.2833 31.9356 10.1965C31.6836 10.0845 31.4744 9.90951 31.3293 9.69811C31.1842 9.4881 31.1017 9.24029 31.0987 8.98268C31.0956 8.77688 31.1429 8.56687 31.2498 8.36386C31.7523 7.40483 32.5587 6.59701 33.5576 6.03279ZM18.7537 12.494H24.035V10.0873C24.035 9.5133 23.7326 8.98968 23.2439 8.60747C22.746 8.21826 22.0557 7.97605 21.2951 7.97605C20.536 7.97605 19.8472 8.21826 19.3493 8.60887C18.8621 8.99108 18.5597 9.5147 18.5597 10.0887V12.3162C18.5597 12.3652 18.5811 12.41 18.6162 12.4422C18.6514 12.473 18.7002 12.494 18.7537 12.494ZM39.8973 1.87326C39.8973 2.39128 39.6682 2.85889 39.2986 3.1991C38.929 3.53791 38.4173 3.74792 37.8538 3.74792C37.2887 3.74792 36.7786 3.53791 36.4075 3.1991C36.0379 2.86029 35.8088 2.39128 35.8088 1.87466C35.8088 1.35664 36.0379 0.88903 36.4075 0.548819C36.7771 0.210008 37.2887 0 37.8523 0C38.4173 0 38.9275 0.210008 39.2971 0.548819C39.6682 0.88623 39.8973 1.35524 39.8973 1.87326ZM1.95217 6.77761C3.07777 5.78778 4.62948 5.17316 6.33544 5.17316C8.04141 5.17316 9.59312 5.78778 10.7187 6.77761C11.8458 7.76884 12.5469 9.13809 12.5469 10.6445V18.0172C12.5469 19.5208 11.8474 20.8887 10.7187 21.8813C9.59312 22.8711 8.04141 23.4843 6.33697 23.4857C4.63253 23.4857 3.08082 22.8711 1.9537 21.8827C0.825042 20.8915 0.124023 19.5236 0.124023 18.02V10.6473C0.124023 9.13809 0.823515 7.76884 1.95217 6.77761ZM8.28272 20.0458C8.76839 19.665 9.07079 19.1414 9.07079 18.566L9.06926 10.0887C9.06926 9.5147 8.76686 8.99108 8.27966 8.60887C7.78177 8.21826 7.09297 7.97605 6.33392 7.97605C5.57181 7.97605 4.88301 8.21826 4.38512 8.60747C3.89639 8.98968 3.59399 9.5133 3.59399 10.0873L3.59552 18.5646C3.59552 19.14 3.89792 19.6636 4.38512 20.0444C4.88301 20.4336 5.57333 20.6758 6.33544 20.6758C7.09603 20.6772 7.78635 20.435 8.28272 20.0458ZM11.1143 1.87466C11.1143 2.39268 10.8852 2.86029 10.5156 3.2005C10.146 3.53931 9.63435 3.74932 9.07079 3.74932C8.5057 3.74932 7.99559 3.53931 7.62446 3.2005C7.25486 2.86169 7.02577 2.39268 7.02577 1.87606C7.02577 1.35805 7.25486 0.890431 7.62446 0.55022C7.99406 0.21141 8.5057 0.00140141 9.06926 0.00140141C9.63435 0.00140141 10.1445 0.21141 10.5141 0.55022C10.8852 0.889031 11.1143 1.35804 11.1143 1.87466ZM5.63901 1.87606C5.63901 2.39408 5.40992 2.86169 5.04032 3.2019C4.67072 3.54071 4.15908 3.75072 3.59552 3.75072C3.03042 3.75072 2.52032 3.54071 2.14919 3.2019C1.77959 2.86309 1.5505 2.39408 1.5505 1.87746C1.5505 1.35944 1.77959 0.891828 2.14919 0.551618C2.51879 0.212807 3.03042 0.00280282 3.59399 0.00280282C4.15908 0.00280282 4.66919 0.212807 5.04032 0.551618C5.40992 0.889028 5.63901 1.35805 5.63901 1.87606ZM66.9987 4.93095L67.0003 21.7007C67.0003 22.1403 66.8048 22.5393 66.4917 22.8263H66.4902C66.1755 23.1147 65.7403 23.2939 65.2622 23.2939C65.0285 23.2939 64.804 23.2505 64.5994 23.1735C64.3856 23.0923 64.1931 22.9747 64.0328 22.8291L64.0312 22.8277C63.8739 22.6821 63.7441 22.5057 63.6555 22.3083C63.5715 22.1207 63.5242 21.9149 63.5242 21.7007L63.5227 4.89595C63.5227 4.33454 63.2218 3.82212 62.7346 3.44971C62.2367 3.0675 61.5479 2.82949 60.7873 2.82949C60.0237 2.82949 59.3333 3.0675 58.8355 3.44971C58.3483 3.82352 58.0459 4.33594 58.0459 4.89735L58.0474 12.5192H58.0672V18.013C58.0672 19.518 57.3677 20.8859 56.2391 21.8771C55.115 22.8655 53.5633 23.4787 51.8558 23.4787C50.1514 23.4787 48.5997 22.8641 47.4741 21.8757C46.3454 20.8845 45.6444 19.5166 45.6444 18.013V10.6921C45.6444 9.41669 46.208 8.26166 47.1197 7.42583C48.0315 6.59001 49.2915 6.07339 50.6829 6.07339C51.1609 6.07339 51.5962 6.2526 51.9108 6.541C52.2254 6.82801 52.4209 7.22703 52.4209 7.66664C52.4209 7.88085 52.3736 8.08665 52.288 8.27426C52.1995 8.46887 52.0696 8.64387 51.9093 8.79088C51.7504 8.93788 51.558 9.05689 51.3457 9.13809C51.1411 9.21649 50.9165 9.25989 50.6829 9.25989C50.2522 9.25989 49.8612 9.4209 49.5787 9.6799C49.2961 9.93891 49.1205 10.2973 49.1205 10.6921L49.122 18.5618C49.122 19.1372 49.4244 19.6608 49.9101 20.0416C50.408 20.4322 51.0983 20.673 51.8573 20.673C52.621 20.673 53.3113 20.4322 53.8092 20.0416C54.2964 19.6608 54.5988 19.1358 54.5988 18.5604V15.2941L54.5789 16.2027L54.5774 4.92956C54.5774 3.57431 55.2815 2.34367 56.4163 1.45184C57.5403 0.569817 59.0875 0.0210041 60.7888 0.0210041C62.4872 0.0210041 64.0358 0.568417 65.1599 1.45184C66.2931 2.34507 66.9987 3.57571 66.9987 4.93095Z" fill="#BCBEC0"/>
<path fill-rule="evenodd" clip-rule="evenodd" d="M1.00189 29.9286C1.61127 29.3924 2.45127 29.0605 3.37375 29.0619C3.44095 29.0619 3.87469 29.0633 3.94036 29.0675C4.78495 29.1123 5.54858 29.4344 6.11367 29.9314C6.72764 30.4718 7.10793 31.2194 7.10793 32.044L7.10335 36.8546C7.10335 37.1696 6.96436 37.4538 6.73986 37.6596C6.51535 37.864 6.20531 37.9914 5.8632 37.9914C5.51956 37.9914 5.20953 37.864 4.98502 37.6582C4.76204 37.4524 4.62305 37.1682 4.62305 36.8546L4.62458 35.7164L2.48182 35.715L2.48029 36.0944V36.8532C2.48029 37.1668 2.34131 37.451 2.1168 37.6568L2.11833 37.6582C1.89535 37.8626 1.58531 37.99 1.24015 37.99C0.898037 37.99 0.586473 37.8626 0.361964 37.6568C0.138982 37.4524 0 37.1682 0 36.8546L0.00305403 32.0426C0.00458131 31.2152 0.3864 30.4676 1.00189 29.9286ZM2.48335 31.778V33.6233L4.62611 33.6247V31.7808C4.62611 31.6254 4.53753 31.4784 4.39549 31.3664C4.23055 31.2362 3.63033 31.1564 3.37375 31.155V31.1564L3.74182 31.155C3.48218 31.155 2.88196 31.2348 2.71702 31.365C2.57193 31.4756 2.48335 31.6226 2.48335 31.778Z" fill="#BCBEC0"/>
<path fill-rule="evenodd" clip-rule="evenodd" d="M41.7544 29.3941C41.9789 29.1896 42.2889 29.0622 42.631 29.0622C42.9747 29.0622 43.2847 29.1896 43.5092 29.3969C43.7322 29.6013 43.8712 29.8869 43.8712 30.2005L43.8651 36.8479C43.8651 37.1629 43.7261 37.4471 43.5 37.6529C43.2755 37.8573 42.9655 37.9847 42.6234 37.9847C42.2798 37.9847 41.9697 37.8573 41.7452 37.6501C41.5222 37.4457 41.3832 37.1601 41.3832 36.8465L41.3848 34.6358L39.2451 34.6344L39.2435 36.8437C39.2435 37.1587 39.1046 37.4429 38.8785 37.6487C38.6555 37.8531 38.3455 37.9805 38.0019 37.9805C37.6582 37.9805 37.3482 37.8531 37.1237 37.6459C36.9007 37.4415 36.7617 37.1559 36.7617 36.8423L36.7678 30.1949C36.7678 29.8799 36.9068 29.5957 37.1328 29.3899C37.3574 29.184 37.6674 29.058 38.0095 29.058C38.3531 29.058 38.6632 29.1854 38.8877 29.3927C39.1122 29.5985 39.2496 29.8813 39.2496 30.1963L39.2481 32.5414L41.3878 32.5427L41.3894 30.1991C41.3894 29.8841 41.5299 29.5985 41.7544 29.3941Z" fill="#BCBEC0"/>
<path fill-rule="evenodd" clip-rule="evenodd" d="M21.7515 35.894L24.3402 35.8954C24.6548 35.8954 24.942 36.013 25.1481 36.202C25.3543 36.3911 25.4826 36.6529 25.4826 36.9413V36.9427H25.4811C25.4811 37.2325 25.3528 37.4943 25.1466 37.6833C24.9389 37.8723 24.6548 37.9899 24.3402 37.9899V37.9885L21.7515 37.9871C20.8275 37.9871 19.9875 37.6539 19.3781 37.1177C18.7641 36.5773 18.3839 35.8296 18.3839 35.0064L18.3854 32.0369C18.3854 31.2123 18.7687 30.4647 19.3857 29.9242C19.9967 29.3894 20.8367 29.0562 21.7576 29.0576L24.3097 29.059C24.6258 29.059 24.9114 29.1766 25.1176 29.367C25.3238 29.556 25.4505 29.8178 25.4505 30.1063C25.4505 30.3961 25.3223 30.6579 25.1145 30.8469C24.9084 31.0359 24.6228 31.1521 24.3081 31.1521L21.7561 31.1507C21.4964 31.1507 21.2643 31.2305 21.0993 31.3593C20.9558 31.4713 20.8672 31.6183 20.8672 31.7723L20.8657 32.5367L24.3066 32.5381C24.6228 32.5381 24.9084 32.6557 25.1145 32.8461C25.3207 33.0351 25.4475 33.297 25.4475 33.5854C25.4475 33.8752 25.3192 34.1384 25.1145 34.326C24.9084 34.515 24.6228 34.6326 24.3066 34.6326V34.6312L20.8657 34.6298V35.2668C20.8657 35.4222 20.9543 35.5706 21.0963 35.6812C21.2597 35.8142 21.4919 35.894 21.7515 35.894Z" fill="#BCBEC0"/>
<path fill-rule="evenodd" clip-rule="evenodd" d="M55.5686 29.3955C55.7931 29.191 56.1031 29.0636 56.4452 29.0636C56.7889 29.0636 57.0989 29.191 57.3234 29.3983C57.5464 29.6041 57.6854 29.8883 57.6854 30.2019L57.6823 34.9424H57.6839L57.6823 34.9438C57.6823 35.7657 57.299 36.5133 56.6835 37.0523C56.1169 37.5493 55.3502 37.8727 54.5041 37.9133C54.4415 37.9161 54.023 37.9175 53.9588 37.9175V37.9189L53.9573 37.9175C53.4655 37.9175 53.0012 37.8209 52.5812 37.6501C52.3079 37.5395 52.0559 37.3981 51.8283 37.2315C51.6007 37.3995 51.3472 37.5409 51.0753 37.6515C50.721 37.7957 50.3316 37.8853 49.9192 37.9091C49.8459 37.9133 49.3984 37.9161 49.3251 37.9161C48.4026 37.9147 47.5626 37.5829 46.9548 37.0467C46.3408 36.5063 45.9605 35.7587 45.9605 34.9354L45.9636 30.1949C45.9636 29.8799 46.1041 29.5957 46.3286 29.3899C46.5531 29.1854 46.8631 29.058 47.2052 29.058C47.5489 29.058 47.8589 29.1854 48.0834 29.3927C48.3064 29.5985 48.4454 29.8827 48.4454 30.1963L48.4408 35.1986C48.4408 35.354 48.5294 35.5024 48.6714 35.613C48.8364 35.7418 49.0685 35.8231 49.3266 35.8231C49.377 35.8231 49.8001 35.8203 49.8489 35.8147C50.049 35.7909 50.2247 35.7181 50.3575 35.6144C50.5011 35.5024 50.5897 35.3554 50.5897 35.2L50.5836 30.1977C50.5836 29.8841 50.7195 29.6027 50.9409 29.3983H50.9425C51.1624 29.1938 51.4694 29.0664 51.81 29.0622L51.8145 29.0608H51.8222V29.0622C52.1643 29.0622 52.4713 29.1868 52.6958 29.3899C52.9188 29.5915 53.0578 29.8743 53.0623 30.1879L53.0639 30.1921V30.1991H53.0623C53.0608 31.8665 53.073 33.534 53.0715 35.2014C53.0715 35.3568 53.1601 35.5052 53.3021 35.6158C53.4671 35.7461 53.7007 35.8259 53.9588 35.8259C54.0138 35.8259 54.4216 35.8217 54.4735 35.8161C54.6675 35.7909 54.8386 35.7195 54.9684 35.6187C55.1104 35.5066 55.2005 35.3596 55.2005 35.2042L55.2051 30.2033C55.2036 29.8855 55.3426 29.6013 55.5686 29.3955Z" fill="#BCBEC0"/>
<path fill-rule="evenodd" clip-rule="evenodd" d="M12.565 35.9136L15.1507 35.915V35.9122V35.9136C15.4653 35.9136 15.7524 36.0312 15.9586 36.2202C16.1648 36.4092 16.2931 36.6711 16.2931 36.9595V36.9609H16.2916C16.2916 37.2507 16.1633 37.5125 15.9571 37.7015C15.7494 37.8905 15.4653 38.0081 15.1507 38.0081V38.0067L12.5635 38.0053C11.6395 38.0053 10.7995 37.6721 10.1901 37.1359C9.57615 36.5955 9.19586 35.8478 9.19586 35.0246L9.19739 32.0551C9.19739 32.0313 9.19739 32.0089 9.19892 31.9865V31.9851V31.9837V31.9823V31.9809L9.20044 30.1959C9.20044 29.8808 9.33943 29.5966 9.56394 29.3908C9.78844 29.1864 10.0985 29.059 10.4406 29.059C10.7842 29.059 11.0943 29.1864 11.3188 29.3922C11.5418 29.598 11.6807 29.8808 11.6807 30.1959C11.6792 34.0152 11.6777 33.4678 11.6762 35.2864C11.6762 35.4432 11.7647 35.5902 11.9068 35.7008C12.0732 35.8324 12.3069 35.9136 12.565 35.9136Z" fill="#BCBEC0"/>
<path fill-rule="evenodd" clip-rule="evenodd" d="M60.7714 29.9227C61.3808 29.3865 62.2208 29.0547 63.1433 29.0561C63.2105 29.0561 63.6442 29.0575 63.7099 29.0617C64.5545 29.1065 65.3181 29.4285 65.8832 29.9255C66.4972 30.4659 66.8775 31.2136 66.8775 32.0382L66.8729 36.8487C66.8729 37.1637 66.7339 37.448 66.5094 37.6538C66.2849 37.8582 65.9748 37.9856 65.6327 37.9856C65.2891 37.9856 64.9791 37.8582 64.7545 37.6524C64.5316 37.4466 64.3926 37.1623 64.3926 36.8487L64.3941 35.7105L62.2513 35.7091L62.2498 36.0885V36.8473C62.2498 37.1609 62.1108 37.4452 61.8863 37.651L61.8879 37.6524C61.6649 37.8568 61.3548 37.9842 61.0097 37.9842C60.6676 37.9842 60.356 37.8568 60.1315 37.651C59.9085 37.4466 59.7695 37.1623 59.7695 36.8487L59.7726 32.0368C59.7741 31.2108 60.1559 30.4631 60.7714 29.9227ZM62.2529 31.7722V33.6174L64.3956 33.6188V31.775C64.3956 31.6196 64.3071 31.4726 64.165 31.3606C64.0001 31.2304 63.3999 31.1506 63.1433 31.1492V31.1506L63.5113 31.1492C63.2517 31.1492 62.6515 31.229 62.4865 31.3592C62.3415 31.4698 62.2529 31.6168 62.2529 31.7722Z" fill="#BCBEC0"/>
<path fill-rule="evenodd" clip-rule="evenodd" d="M30.0507 35.2238L30.0492 36.8437C30.0492 37.1573 29.9102 37.4429 29.6842 37.6487C29.4612 37.8531 29.1512 37.9805 28.8075 37.9805C28.4639 37.9805 28.1539 37.8517 27.9293 37.6459C27.7064 37.4415 27.5674 37.1559 27.5674 36.8423L27.5735 30.1949C27.5735 29.8799 27.714 29.5957 27.9385 29.3899C28.163 29.1854 28.4731 29.058 28.8152 29.058C29.1588 29.058 29.4688 29.1868 29.6933 29.3927C29.9179 29.5985 30.0553 29.8813 30.0553 30.1963L30.0538 31.8105L30.292 31.5921L32.7265 29.3633C32.9495 29.1588 33.2427 29.0566 33.5344 29.0566C33.8261 29.0566 34.1179 29.1602 34.3393 29.3633C34.5623 29.5691 34.6753 29.8365 34.6753 30.1025C34.6753 30.3419 34.5867 30.5813 34.408 30.7759L32.0774 32.9124L31.9033 33.072L31.4176 33.5172L31.9033 33.9624L32.0774 34.122L34.408 36.2585C34.5867 36.4531 34.6753 36.6925 34.6753 36.9319C34.6753 37.1979 34.5638 37.4667 34.3393 37.6711C34.1163 37.8755 33.8246 37.9777 33.5344 37.9791C33.2427 37.9791 32.9495 37.8769 32.7265 37.6725L30.292 35.4436L30.0507 35.2238Z" fill="#BCBEC0"/>
<path d="M3.32515 48.7623C3.2274 48.8169 3.09759 48.8435 2.93722 48.8435C2.79671 48.8435 2.68522 48.8071 2.60275 48.7329C2.52028 48.6587 2.47904 48.5397 2.47904 48.3773C2.33089 48.5411 2.15679 48.6601 1.95977 48.7329C1.76275 48.8071 1.54893 48.8435 1.31984 48.8435C1.1717 48.8435 1.02966 48.8281 0.896787 48.7973C0.762387 48.7665 0.64784 48.7161 0.550095 48.6489C0.452349 48.5803 0.374459 48.4935 0.31795 48.3857C0.259914 48.2793 0.232422 48.1491 0.232422 47.9979C0.232422 47.8271 0.264495 47.6871 0.328641 47.5779C0.392786 47.4687 0.476785 47.3819 0.58064 47.3146C0.684495 47.2474 0.803622 47.197 0.936495 47.1592C1.07089 47.1228 1.20682 47.092 1.34733 47.0682C1.49548 47.0416 1.63751 47.0206 1.77039 47.0066C1.90479 46.9926 2.02239 46.973 2.12319 46.9478C2.22551 46.9226 2.30493 46.8862 2.3645 46.8372C2.42406 46.7882 2.45308 46.7168 2.45308 46.6244C2.45308 46.5152 2.43017 46.4284 2.38588 46.3612C2.34159 46.2954 2.28355 46.245 2.2133 46.21C2.14304 46.175 2.06515 46.1512 1.9781 46.14C1.89104 46.1288 1.80551 46.1218 1.71999 46.1218C1.4909 46.1218 1.29999 46.1624 1.14726 46.2422C0.994532 46.322 0.912058 46.4732 0.898313 46.6944H0.357658C0.366822 46.5082 0.408059 46.35 0.484422 46.2212C0.560786 46.0924 0.663113 45.9888 0.789877 45.909C0.91664 45.8292 1.06326 45.7718 1.22973 45.7368C1.39468 45.7018 1.56879 45.6836 1.75206 45.6836C1.9002 45.6836 2.04835 45.6934 2.19497 45.713C2.34159 45.7326 2.47446 45.7718 2.59359 45.8334C2.71271 45.8936 2.8074 45.979 2.88071 46.0868C2.9525 46.196 2.98915 46.3374 2.98915 46.5124V48.0651C2.98915 48.1813 2.99679 48.2681 3.01206 48.3213C3.02733 48.3759 3.0762 48.4025 3.16173 48.4025C3.21213 48.4025 3.26711 48.3927 3.32668 48.3731V48.7623H3.32515ZM2.44697 47.2152C2.39657 47.2502 2.33242 47.2768 2.25606 47.2964C2.1797 47.316 2.09875 47.3328 2.01475 47.3454C1.92922 47.3594 1.83911 47.3706 1.74442 47.3804C1.64973 47.3902 1.55657 47.4028 1.46799 47.4183C1.3794 47.4337 1.29388 47.4532 1.21293 47.477C1.13199 47.5009 1.06173 47.5331 1.00217 47.5737C0.942604 47.6143 0.895259 47.6661 0.858605 47.7277C0.82195 47.7907 0.805149 47.8677 0.805149 47.9615C0.805149 48.0427 0.823478 48.1127 0.858605 48.1687C0.895259 48.2247 0.941077 48.2709 0.999114 48.3059C1.05715 48.3409 1.12282 48.3661 1.19919 48.3815C1.27555 48.3969 1.3565 48.4053 1.4405 48.4053C1.61919 48.4053 1.77191 48.3829 1.89868 48.3381C2.02544 48.2933 2.1293 48.2373 2.21024 48.1687C2.29119 48.1001 2.35075 48.0273 2.38893 47.9475C2.42711 47.8677 2.44697 47.7935 2.44697 47.7221V47.2152Z" fill="#BCBEC0" stroke="#BCBEC0" stroke-width="0.25" stroke-miterlimit="10"/>
<path d="M6.77018 48.7733H6.22953V48.3645H6.21731C6.12873 48.5325 5.98822 48.6529 5.79731 48.7299C5.6064 48.8055 5.39564 48.8433 5.16655 48.8433C4.91149 48.8433 4.69004 48.7999 4.50066 48.7145C4.31127 48.6291 4.15396 48.5129 4.02873 48.3673C3.90349 48.2217 3.8088 48.0522 3.74466 47.8618C3.68051 47.6714 3.64844 47.4684 3.64844 47.2542C3.64844 47.04 3.67898 46.8384 3.74007 46.6494C3.80116 46.4604 3.89433 46.2938 4.01956 46.151C4.1448 46.0068 4.30211 45.8934 4.49149 45.8094C4.68087 45.7254 4.9008 45.6834 5.15127 45.6834C5.2368 45.6834 5.32691 45.6918 5.42466 45.7072C5.5224 45.7226 5.62015 45.7492 5.71789 45.7856C5.81564 45.822 5.90727 45.871 5.99433 45.9312C6.08138 45.9914 6.15469 46.067 6.21426 46.1552H6.22647V44.6025H6.76713V48.7733H6.77018ZM4.22269 47.2906C4.22269 47.4306 4.24255 47.5678 4.28378 47.7022C4.32349 47.8366 4.38611 47.9556 4.46858 48.0606C4.55106 48.1657 4.65796 48.2497 4.78626 48.3113C4.91607 48.3743 5.06727 48.4051 5.24138 48.4051C5.42313 48.4051 5.57891 48.3715 5.70567 48.3057C5.83244 48.2399 5.93629 48.153 6.01724 48.0452C6.09818 47.9388 6.15622 47.817 6.19287 47.6798C6.22953 47.544 6.24633 47.4054 6.24633 47.2654C6.24633 47.117 6.22647 46.9742 6.18829 46.837C6.15011 46.6998 6.08902 46.5766 6.00655 46.4716C5.92407 46.3666 5.81717 46.2812 5.68429 46.2182C5.55295 46.1538 5.39411 46.1216 5.20626 46.1216C5.01993 46.1216 4.86262 46.1552 4.73891 46.221C4.61367 46.2868 4.51287 46.375 4.43651 46.4842C4.36015 46.5934 4.30517 46.718 4.27157 46.858C4.23949 46.9994 4.22269 47.1436 4.22269 47.2906Z" fill="#BCBEC0" stroke="#BCBEC0" stroke-width="0.25" stroke-miterlimit="10"/>
<path d="M9.08734 48.7734H8.5085L7.28516 45.7549H7.88996L8.81396 48.2708H8.82618L9.72421 45.7549H10.2908L9.08734 48.7734Z" fill="#BCBEC0" stroke="#BCBEC0" stroke-width="0.25" stroke-miterlimit="10"/>
<path d="M13.5972 47.817C13.5254 48.1516 13.3651 48.4064 13.1192 48.5814C12.8733 48.7564 12.5632 48.8446 12.1891 48.8446C11.9264 48.8446 11.6973 48.804 11.5048 48.7256C11.3109 48.6458 11.149 48.5352 11.0176 48.3952C10.8863 48.2552 10.787 48.0872 10.7214 47.8926C10.6557 47.698 10.619 47.4866 10.6099 47.257C10.6099 47.0315 10.648 46.8215 10.7244 46.6297C10.8008 46.4365 10.9077 46.2713 11.0467 46.1299C11.1841 45.9899 11.3475 45.8807 11.5369 45.8037C11.7263 45.7253 11.9325 45.6875 12.1585 45.6875C12.4518 45.6875 12.6946 45.7435 12.887 45.8541C13.0795 45.9647 13.2352 46.1061 13.3513 46.2769C13.4674 46.4477 13.5483 46.6353 13.5926 46.8369C13.6369 47.0399 13.6552 47.2317 13.6461 47.4151H11.1811C11.1765 47.5482 11.1933 47.6728 11.2315 47.7918C11.2696 47.9108 11.3307 48.0158 11.4163 48.1068C11.5018 48.1978 11.6087 48.2706 11.7416 48.3252C11.8729 48.3798 12.0287 48.4064 12.2059 48.4064C12.4304 48.4064 12.6182 48.3574 12.7664 48.2608C12.9145 48.1628 13.0123 48.0158 13.0596 47.817H13.5972ZM13.0749 46.9755C13.0657 46.8593 13.0382 46.7473 12.9894 46.6423C12.9405 46.5373 12.8748 46.4463 12.7923 46.3707C12.7099 46.2951 12.6106 46.2349 12.496 46.1901C12.3815 46.1453 12.2578 46.1229 12.1264 46.1229C11.9859 46.1229 11.8607 46.1453 11.7477 46.1901C11.6347 46.2349 11.5384 46.2965 11.4575 46.3735C11.3766 46.4519 11.3124 46.5415 11.2666 46.6451C11.2192 46.7487 11.1918 46.8579 11.1841 46.9755H13.0749Z" fill="#BCBEC0" stroke="#BCBEC0" stroke-width="0.25" stroke-miterlimit="10"/>
<path d="M14.1885 45.7556H14.6986V46.3912H14.7108C14.8421 46.1462 15.004 45.9656 15.1949 45.848C15.3859 45.7318 15.6272 45.6772 15.9204 45.6842V46.2092C15.7035 46.2092 15.5187 46.2358 15.366 46.2904C15.2133 46.345 15.0896 46.4248 14.9964 46.5298C14.9032 46.6348 14.8345 46.7636 14.7933 46.9148C14.7505 47.066 14.7291 47.2382 14.7291 47.4286V48.7713H14.1885V45.7556Z" fill="#BCBEC0" stroke="#BCBEC0" stroke-width="0.25" stroke-miterlimit="10"/>
<path d="M17.0793 45.7568H17.7345V46.195H17.0793V48.0683C17.0793 48.1271 17.0838 48.1733 17.0945 48.2083C17.1052 48.2433 17.1251 48.2713 17.1556 48.2895C17.1846 48.3091 17.2259 48.3217 17.2793 48.3273C17.3328 48.3329 17.4015 48.3357 17.4855 48.3357H17.7345V48.7739H17.3206C17.1801 48.7739 17.0609 48.7655 16.9601 48.7473C16.8609 48.7291 16.7799 48.6983 16.7188 48.6507C16.6577 48.6045 16.6119 48.5373 16.5814 48.4519C16.5523 48.3665 16.5371 48.2531 16.5371 48.1131V46.1922H15.9766V45.754H16.5371V44.8496H17.0777V45.7568H17.0793Z" fill="#BCBEC0" stroke="#BCBEC0" stroke-width="0.25" stroke-miterlimit="10"/>
<path d="M18.9078 45.2131H18.3672V44.6055H18.9078V45.2131ZM18.3672 45.7563H18.9078V48.7748H18.3672V45.7563Z" fill="#BCBEC0" stroke="#BCBEC0" stroke-width="0.25" stroke-miterlimit="10"/>
<path d="M20.0792 47.8226C20.0837 47.936 20.1112 48.0284 20.1616 48.1026C20.212 48.1768 20.2792 48.2356 20.3617 48.2804C20.4442 48.3252 20.5373 48.3574 20.6412 48.377C20.7451 48.3966 20.852 48.4064 20.9635 48.4064C21.049 48.4064 21.1376 48.4008 21.2307 48.3882C21.3239 48.377 21.4094 48.3546 21.4888 48.3238C21.5667 48.293 21.6324 48.2468 21.6828 48.1866C21.7332 48.1264 21.7592 48.0494 21.7592 47.9556C21.7592 47.859 21.7286 47.7792 21.6675 47.719C21.6064 47.6588 21.5255 47.6084 21.4262 47.5706C21.3269 47.5314 21.2124 47.4992 21.0826 47.474C20.9528 47.4488 20.8199 47.4222 20.684 47.3956C20.548 47.369 20.4167 47.3354 20.2899 47.2961C20.1632 47.2569 20.0486 47.2065 19.9463 47.1449C19.844 47.0833 19.763 47.0035 19.7004 46.9055C19.6393 46.8089 19.6088 46.6871 19.6088 46.5443C19.6088 46.3931 19.6454 46.2615 19.7203 46.1537C19.7951 46.0445 19.8898 45.9563 20.0074 45.8877C20.1235 45.8191 20.2563 45.7687 20.4014 45.7365C20.5465 45.7043 20.6931 45.6875 20.8382 45.6875C21.02 45.6875 21.191 45.7015 21.3514 45.7309C21.5102 45.7603 21.6507 45.8107 21.7714 45.8821C21.892 45.9535 21.9883 46.0515 22.0616 46.1733C22.1334 46.2965 22.1761 46.4491 22.1883 46.6311H21.6477C21.6385 46.5345 21.611 46.4533 21.5621 46.3889C21.5133 46.3245 21.4537 46.2727 21.3835 46.2349C21.3132 46.1957 21.2353 46.1677 21.1483 46.1495C21.0612 46.1313 20.9726 46.1229 20.884 46.1229C20.8031 46.1229 20.7221 46.1285 20.6381 46.1411C20.5557 46.1523 20.4793 46.1733 20.4121 46.2027C20.3449 46.2321 20.2884 46.2713 20.2472 46.3217C20.2044 46.3721 20.183 46.4351 20.183 46.5079C20.183 46.5975 20.2151 46.6689 20.2823 46.7235C20.348 46.7781 20.432 46.8243 20.5343 46.8607C20.6366 46.8971 20.7512 46.9293 20.8779 46.9545C21.0047 46.9797 21.133 47.0063 21.2598 47.0329C21.3957 47.0609 21.5286 47.0931 21.6584 47.1323C21.7882 47.1715 21.9027 47.2233 22.002 47.2863C22.1013 47.3508 22.1822 47.4319 22.2433 47.5286C22.3044 47.6266 22.3349 47.747 22.3349 47.8912C22.3349 48.0704 22.2937 48.2216 22.2112 48.3434C22.1288 48.4666 22.0203 48.5646 21.8859 48.6388C21.7515 48.713 21.6019 48.7648 21.4339 48.797C21.2659 48.8278 21.0994 48.8432 20.9344 48.8432C20.7481 48.8432 20.5725 48.825 20.4091 48.7872C20.2456 48.7508 20.1005 48.692 19.9723 48.6122C19.8455 48.5324 19.7432 48.4274 19.6668 48.2972C19.5904 48.167 19.5477 48.0088 19.54 47.8212H20.0792V47.8226Z" fill="#BCBEC0" stroke="#BCBEC0" stroke-width="0.25" stroke-miterlimit="10"/>
<path d="M23.5045 45.2131H22.9639V44.6055H23.5045V45.2131ZM22.9639 45.7563H23.5045V48.7748H22.9639V45.7563Z" fill="#BCBEC0" stroke="#BCBEC0" stroke-width="0.25" stroke-miterlimit="10"/>
<path d="M24.3462 45.7565H24.8563V46.2353H24.8685C24.9831 46.0491 25.1312 45.9105 25.3114 45.8209C25.4916 45.7313 25.7009 45.6865 25.9391 45.6865C26.156 45.6865 26.3362 45.7131 26.4798 45.7677C26.6234 45.8223 26.741 45.8979 26.8295 45.9959C26.9181 46.0939 26.9807 46.2087 27.0174 46.3431C27.054 46.4775 27.0708 46.626 27.0708 46.7898V48.775H26.5302V46.7324C26.5302 46.5462 26.4706 46.3977 26.3515 46.2885C26.2324 46.1793 26.069 46.1247 25.8612 46.1247C25.6963 46.1247 25.5527 46.1485 25.4321 46.1947C25.3114 46.2409 25.2106 46.3081 25.1297 46.3935C25.0487 46.4789 24.9892 46.5798 24.9479 46.6946C24.9082 46.8094 24.8868 46.9354 24.8868 47.0712V48.7764H24.3462V45.7565Z" fill="#BCBEC0" stroke="#BCBEC0" stroke-width="0.25" stroke-miterlimit="10"/>
<path d="M30.7275 48.5174C30.7275 49.0116 30.6038 49.3826 30.3548 49.629C30.1059 49.8755 29.721 50.0001 29.1987 50.0001C29.046 50.0001 28.8902 49.9847 28.7313 49.9539C28.5725 49.9231 28.4274 49.8727 28.2976 49.8027C28.1678 49.7327 28.0609 49.6416 27.9753 49.5282C27.8898 49.4148 27.844 49.2776 27.8348 49.1138H28.3755C28.3801 49.2034 28.4106 49.279 28.4671 49.342C28.5252 49.4036 28.5939 49.4554 28.6779 49.4932C28.7604 49.5324 28.8505 49.5604 28.9482 49.5772C29.046 49.5954 29.1391 49.6038 29.2277 49.6038C29.4064 49.6038 29.5561 49.5758 29.6798 49.5198C29.8035 49.4638 29.9043 49.3854 29.9852 49.286C30.0662 49.1866 30.1242 49.0676 30.1609 48.9276C30.1975 48.7876 30.2143 48.6322 30.2143 48.46V48.2612H30.2021C30.1548 48.355 30.0952 48.4348 30.0234 48.5034C29.9516 48.572 29.8692 48.628 29.7775 48.6728C29.6859 48.7176 29.5881 48.7512 29.4843 48.775C29.3804 48.7988 29.2781 48.81 29.1758 48.81C28.9299 48.81 28.7145 48.7694 28.5328 48.6868C28.3495 48.6056 28.1968 48.4936 28.0746 48.3536C27.9509 48.2136 27.8593 48.0512 27.7982 47.8664C27.7371 47.6816 27.7065 47.4856 27.7065 47.2798C27.7065 47.1006 27.7325 46.9186 27.7829 46.731C27.8333 46.5434 27.9188 46.3725 28.038 46.2171C28.1571 46.0617 28.3144 45.9343 28.5099 45.8349C28.7054 45.7355 28.9452 45.6865 29.2292 45.6865C29.4369 45.6865 29.6279 45.7285 29.802 45.8125C29.9761 45.8965 30.112 46.0211 30.2097 46.1891H30.2159V45.7565H30.726V48.5174H30.7275ZM29.2109 48.3718C29.3896 48.3718 29.5408 48.3382 29.666 48.2696C29.7913 48.201 29.8921 48.1114 29.9684 48.0008C30.0448 47.8902 30.1013 47.7642 30.1364 47.6242C30.1731 47.4842 30.1899 47.3442 30.1899 47.2042C30.1899 47.0726 30.1731 46.941 30.1395 46.8136C30.1059 46.6848 30.0509 46.57 29.9776 46.4663C29.9028 46.3627 29.8065 46.2801 29.6874 46.2185C29.5683 46.1569 29.4247 46.1247 29.2537 46.1247C29.0796 46.1247 28.9314 46.1555 28.8077 46.2157C28.684 46.2759 28.5832 46.3571 28.5053 46.4579C28.4274 46.5588 28.3694 46.6764 28.3327 46.808C28.2961 46.941 28.2793 47.0782 28.2793 47.2224C28.2793 47.3582 28.2945 47.4954 28.3236 47.6312C28.3526 47.767 28.4045 47.8916 28.4763 48.0022C28.5481 48.1128 28.6443 48.2024 28.7634 48.271C28.8841 48.3368 29.0337 48.3718 29.2109 48.3718Z" fill="#BCBEC0" stroke="#BCBEC0" stroke-width="0.25" stroke-miterlimit="10"/>
<path d="M35.8225 48.2534C35.7538 48.3514 35.6729 48.4368 35.5766 48.5096C35.4804 48.5838 35.3766 48.6454 35.2651 48.693C35.1536 48.7406 35.0345 48.7784 34.9092 48.8036C34.784 48.8288 34.6603 48.8414 34.5366 48.8414C34.2311 48.8414 33.9852 48.798 33.7974 48.7098C33.611 48.6216 33.466 48.518 33.3636 48.3976C33.2613 48.2772 33.1956 48.1526 33.1636 48.0238C33.1315 47.895 33.1162 47.7886 33.1162 47.7032C33.1162 47.5394 33.1452 47.3952 33.2017 47.272C33.2598 47.1474 33.3361 47.0354 33.4308 46.936C33.527 46.8366 33.6385 46.747 33.7684 46.6672C33.8982 46.5874 34.0341 46.5118 34.1792 46.4418C34.115 46.3606 34.054 46.2822 33.9944 46.208C33.9348 46.1338 33.8814 46.0596 33.8325 45.9868C33.7836 45.9126 33.7454 45.8328 33.718 45.7473C33.6905 45.6619 33.6767 45.5667 33.6767 45.4617C33.6767 45.3483 33.6996 45.2405 33.7439 45.1383C33.7882 45.0347 33.8539 44.9437 33.9409 44.8639C34.028 44.7841 34.1349 44.7211 34.2632 44.6735C34.39 44.6273 34.5366 44.6035 34.703 44.6035C34.8436 44.6035 34.9795 44.6217 35.1139 44.6567C35.2483 44.6917 35.3659 44.7449 35.4667 44.8177C35.569 44.8891 35.65 44.9787 35.7126 45.0865C35.7737 45.1943 35.8042 45.3175 35.8042 45.4575C35.8042 45.5821 35.7813 45.6983 35.734 45.8047C35.6866 45.9126 35.624 46.0106 35.543 46.1002C35.4621 46.1898 35.3705 46.271 35.2697 46.3424C35.1673 46.4138 35.062 46.4796 34.952 46.5384L35.7737 47.4554C35.8592 47.2454 35.9081 47.0298 35.9203 46.8072H36.4365C36.4243 46.9318 36.4105 47.0382 36.3953 47.125C36.38 47.2132 36.3617 47.293 36.3372 47.3672C36.3143 47.4414 36.2853 47.5142 36.2517 47.5856C36.2181 47.657 36.1769 47.741 36.131 47.8334L37.0169 48.7728H36.3052L35.8225 48.2534ZM34.4785 46.7596C34.3716 46.8142 34.2724 46.8702 34.1761 46.929C34.0799 46.9878 33.9974 47.0536 33.9241 47.1278C33.8524 47.202 33.7943 47.2846 33.7516 47.3756C33.7088 47.4666 33.6874 47.5744 33.6874 47.699C33.6874 47.804 33.7118 47.9006 33.7607 47.9874C33.8096 48.0756 33.8737 48.1484 33.9547 48.2086C34.0356 48.2688 34.1273 48.3164 34.2311 48.3514C34.335 48.3864 34.4419 48.4046 34.5534 48.4046C34.7611 48.4046 34.9474 48.3598 35.1108 48.2702C35.2742 48.1806 35.4117 48.0602 35.5217 47.909L34.4785 46.7596ZM34.6526 46.2108C34.7168 46.1716 34.7855 46.1296 34.8573 46.082C34.9306 46.0358 34.9963 45.9826 35.0558 45.9238C35.1154 45.865 35.1643 45.8005 35.2025 45.7277C35.2406 45.6563 35.2605 45.5751 35.2605 45.4855C35.2605 45.3651 35.2132 45.2601 35.12 45.1733C35.0253 45.0851 34.8985 45.0417 34.7351 45.0417C34.6068 45.0417 34.4877 45.0781 34.3762 45.1495C34.2647 45.2209 34.2097 45.3329 34.2097 45.4855C34.2097 45.5485 34.2235 45.6101 34.251 45.6717C34.2785 45.7334 34.3136 45.795 34.3564 45.8552C34.3991 45.9154 34.4465 45.9742 34.4969 46.033C34.5503 46.0946 34.6007 46.152 34.6526 46.2108Z" fill="#BCBEC0" stroke="#BCBEC0" stroke-width="0.25" stroke-miterlimit="10"/>
<path d="M39.0953 45.757H39.6039V46.2008H39.6161C39.862 45.8578 40.2163 45.6869 40.6791 45.6869C40.8822 45.6869 41.067 45.7262 41.2335 45.8032C41.3984 45.8816 41.516 46.0132 41.5832 46.1994C41.6932 46.0356 41.8398 45.9096 42.0231 45.82C42.2048 45.7304 42.4034 45.6855 42.6156 45.6855C42.7806 45.6855 42.9303 45.7024 43.0647 45.7346C43.1991 45.7682 43.3136 45.8186 43.4083 45.8886C43.5045 45.9586 43.5778 46.0496 43.6313 46.1602C43.6847 46.2708 43.7107 46.4038 43.7107 46.5606V48.7726H43.17V46.7944C43.17 46.7006 43.1609 46.6138 43.1441 46.5312C43.1273 46.4486 43.0952 46.3786 43.0479 46.3184C43.0005 46.2582 42.9364 46.2106 42.8539 46.1756C42.7714 46.1406 42.663 46.1224 42.5316 46.1224C42.2689 46.1224 42.0597 46.1924 41.9039 46.3324C41.7481 46.4724 41.6718 46.6586 41.6718 46.8924V48.7726H41.1311V46.7944C41.1311 46.6964 41.122 46.6082 41.1021 46.5256C41.0823 46.4444 41.0502 46.373 41.0028 46.3128C40.9555 46.2526 40.8929 46.2064 40.8119 46.1728C40.731 46.1392 40.6317 46.1238 40.5126 46.1238C40.3507 46.1238 40.2148 46.1532 40.1048 46.212C39.9948 46.2708 39.9047 46.3408 39.8345 46.422C39.7642 46.5032 39.7138 46.5886 39.6817 46.6754C39.6497 46.7636 39.6344 46.8364 39.6344 46.8938V48.774H39.0938V45.757H39.0953Z" fill="#BCBEC0" stroke="#BCBEC0" stroke-width="0.25" stroke-miterlimit="10"/>
<path d="M47.4428 48.7623C47.3451 48.8169 47.2153 48.8435 47.0549 48.8435C46.9144 48.8435 46.8029 48.8071 46.7204 48.7329C46.638 48.6587 46.5967 48.5397 46.5967 48.3773C46.4486 48.5411 46.2745 48.6601 46.0774 48.7329C45.8804 48.8071 45.6666 48.8435 45.4375 48.8435C45.2894 48.8435 45.1473 48.8281 45.0145 48.7973C44.8801 48.7665 44.7655 48.7161 44.6678 48.6489C44.57 48.5803 44.4921 48.4935 44.4356 48.3857C44.3776 48.2793 44.3501 48.1491 44.3501 47.9979C44.3501 47.8271 44.3822 47.6871 44.4463 47.5779C44.5105 47.4687 44.5929 47.3819 44.6983 47.3146C44.8022 47.2488 44.9213 47.197 45.0542 47.1592C45.1886 47.1228 45.3245 47.092 45.465 47.0682C45.6132 47.0416 45.7552 47.0206 45.8881 47.0066C46.0225 46.9926 46.1401 46.973 46.2409 46.9478C46.3417 46.9226 46.4241 46.8862 46.4822 46.8372C46.5417 46.7882 46.5708 46.7168 46.5708 46.6244C46.5708 46.5152 46.5478 46.4284 46.5036 46.3612C46.4593 46.294 46.4012 46.245 46.331 46.21C46.2607 46.175 46.1828 46.1512 46.0958 46.14C46.0087 46.1288 45.9232 46.1218 45.8377 46.1218C45.6086 46.1218 45.4177 46.1624 45.2649 46.2422C45.1122 46.322 45.0297 46.4732 45.016 46.6944H44.4753C44.4845 46.5082 44.5257 46.35 44.6021 46.2212C44.6785 46.0924 44.7808 45.9888 44.9076 45.909C45.0343 45.8292 45.1809 45.7718 45.3474 45.7368C45.5124 45.7018 45.6865 45.6836 45.8697 45.6836C46.0179 45.6836 46.166 45.6934 46.3126 45.713C46.4593 45.7326 46.5921 45.7718 46.7113 45.8334C46.8304 45.895 46.9251 45.979 46.9984 46.0868C47.0702 46.196 47.1068 46.3374 47.1068 46.5124V48.0651C47.1068 48.1813 47.1145 48.2681 47.1297 48.3213C47.145 48.3759 47.1939 48.4025 47.2794 48.4025C47.3298 48.4025 47.3848 48.3927 47.4444 48.3731V48.7623H47.4428ZM46.5646 47.2152C46.5142 47.2502 46.4501 47.2768 46.3737 47.2964C46.2974 47.316 46.2164 47.3328 46.1324 47.3454C46.0469 47.3594 45.9568 47.3706 45.8621 47.3804C45.7659 47.3902 45.6742 47.4028 45.5857 47.4183C45.4971 47.4337 45.4116 47.4532 45.3306 47.477C45.2497 47.5009 45.1794 47.5331 45.1198 47.5737C45.0603 47.6143 45.0129 47.6661 44.9763 47.7277C44.9396 47.7907 44.9228 47.8677 44.9228 47.9615C44.9228 48.0427 44.9412 48.1127 44.9763 48.1687C45.0129 48.2247 45.0588 48.2709 45.1168 48.3059C45.1748 48.3409 45.2405 48.3661 45.3169 48.3815C45.3932 48.3969 45.4742 48.4053 45.5582 48.4053C45.7369 48.4053 45.8896 48.3829 46.0164 48.3381C46.1431 48.2933 46.247 48.2373 46.3279 48.1687C46.4089 48.1001 46.4684 48.0273 46.5066 47.9475C46.5448 47.8677 46.5646 47.7935 46.5646 47.7221V47.2152Z" fill="#BCBEC0" stroke="#BCBEC0" stroke-width="0.25" stroke-miterlimit="10"/>
<path d="M47.9273 45.7556H48.4359V46.3912H48.4481C48.5795 46.1462 48.7413 45.9656 48.9323 45.848C49.1232 45.7318 49.3645 45.6772 49.6577 45.6842V46.2092C49.4408 46.2092 49.256 46.2358 49.1033 46.2904C48.9506 46.345 48.8269 46.4248 48.7337 46.5298C48.6405 46.6348 48.5718 46.7636 48.5306 46.9148C48.4878 47.066 48.4664 47.2382 48.4664 47.4286V48.7713H47.9258V45.7556H47.9273Z" fill="#BCBEC0" stroke="#BCBEC0" stroke-width="0.25" stroke-miterlimit="10"/>
<path d="M50.0992 44.6055H50.6398V47.0751L52.1427 45.7563H52.8681L51.5623 46.8539L52.9628 48.7748H52.2755L51.1484 47.1983L50.6383 47.6296V48.7734H50.0977V44.6055H50.0992Z" fill="#BCBEC0" stroke="#BCBEC0" stroke-width="0.25" stroke-miterlimit="10"/>
<path d="M56.1807 47.817C56.1089 48.1516 55.9486 48.4064 55.7027 48.5814C55.4568 48.7564 55.1467 48.8446 54.7726 48.8446C54.5099 48.8446 54.2808 48.804 54.0883 48.7256C53.8959 48.6472 53.7325 48.5352 53.6011 48.3952C53.4698 48.2552 53.3705 48.0872 53.3049 47.8926C53.2392 47.698 53.2025 47.4866 53.1934 47.257C53.1934 47.0315 53.2315 46.8215 53.3079 46.6297C53.3843 46.4365 53.4912 46.2713 53.6302 46.1299C53.7691 45.9885 53.931 45.8807 54.1204 45.8037C54.3098 45.7253 54.516 45.6875 54.742 45.6875C55.0353 45.6875 55.2781 45.7435 55.4705 45.8541C55.663 45.9647 55.8187 46.1061 55.9348 46.2769C56.0509 46.4477 56.1318 46.6353 56.1761 46.8369C56.2204 47.0399 56.2387 47.2317 56.2296 47.4151H53.7646C53.76 47.5482 53.7768 47.6728 53.815 47.7918C53.8531 47.9108 53.9142 48.0158 53.9998 48.1068C54.0853 48.1978 54.1922 48.2706 54.3251 48.3252C54.4564 48.3798 54.6122 48.4064 54.7894 48.4064C55.0139 48.4064 55.2017 48.3574 55.3499 48.2608C55.498 48.1628 55.5958 48.0158 55.6431 47.817H56.1807ZM55.6584 46.9755C55.6492 46.8593 55.6217 46.7473 55.5729 46.6423C55.524 46.5373 55.4583 46.4463 55.3758 46.3707C55.2934 46.2951 55.1941 46.2349 55.0795 46.1901C54.965 46.1453 54.8413 46.1229 54.7099 46.1229C54.5694 46.1229 54.4442 46.1453 54.3312 46.1901C54.2182 46.2349 54.1219 46.2965 54.041 46.3735C53.9601 46.4519 53.8959 46.5415 53.8501 46.6451C53.8027 46.7487 53.7753 46.8579 53.7676 46.9755H55.6584Z" fill="#BCBEC0" stroke="#BCBEC0" stroke-width="0.25" stroke-miterlimit="10"/>
<path d="M57.5431 45.7568H58.1983V46.195H57.5431V48.0683C57.5431 48.1271 57.5476 48.1733 57.5583 48.2083C57.569 48.2433 57.5889 48.2713 57.6194 48.2895C57.6484 48.3091 57.6912 48.3217 57.7431 48.3273C57.7966 48.3329 57.8653 48.3357 57.9508 48.3357H58.1998V48.7739H57.7859C57.6454 48.7739 57.5263 48.7655 57.4255 48.7473C57.3247 48.7291 57.2452 48.6983 57.1841 48.6507C57.1231 48.6045 57.0772 48.5373 57.0467 48.4519C57.0161 48.3665 57.0024 48.2531 57.0024 48.1131V46.1922H56.4419V45.754H57.0024V44.8496H57.5431V45.7568Z" fill="#BCBEC0" stroke="#BCBEC0" stroke-width="0.25" stroke-miterlimit="10"/>
<path d="M59.3708 45.2131H58.8301V44.6055H59.3708V45.2131ZM58.8286 45.7563H59.3693V48.7748H58.8286V45.7563Z" fill="#BCBEC0" stroke="#BCBEC0" stroke-width="0.25" stroke-miterlimit="10"/>
<path d="M60.211 45.7565H60.7196V46.2353H60.7318C60.8463 46.0491 60.9945 45.9105 61.1747 45.8209C61.3549 45.7313 61.5642 45.6865 61.8024 45.6865C62.0193 45.6865 62.1995 45.7131 62.3431 45.7677C62.4866 45.8223 62.6042 45.8979 62.6928 45.9959C62.7814 46.0939 62.844 46.2087 62.8807 46.3431C62.9173 46.4775 62.9341 46.626 62.9341 46.7898V48.775H62.3935V46.7324C62.3935 46.5462 62.3339 46.3977 62.2148 46.2885C62.0957 46.1793 61.9322 46.1247 61.7245 46.1247C61.5596 46.1247 61.416 46.1485 61.2954 46.1947C61.1747 46.2409 61.0739 46.3081 60.993 46.3935C60.912 46.4789 60.8525 46.5798 60.8112 46.6946C60.7715 46.8094 60.7501 46.9354 60.7501 47.0712V48.7764H60.2095V45.7565H60.211Z" fill="#BCBEC0" stroke="#BCBEC0" stroke-width="0.25" stroke-miterlimit="10"/>
<path d="M66.5922 48.5174C66.5922 49.0116 66.4685 49.3826 66.2195 49.629C65.9706 49.8755 65.5857 50.0001 65.0634 50.0001C64.9106 50.0001 64.7549 49.9847 64.596 49.9539C64.4372 49.9231 64.2921 49.8727 64.1638 49.8027C64.034 49.7327 63.9271 49.6416 63.8416 49.5282C63.756 49.4148 63.7102 49.2776 63.701 49.1138H64.2417C64.2463 49.2034 64.2768 49.279 64.3333 49.342C64.3914 49.4036 64.4601 49.4554 64.5441 49.4932C64.6266 49.5324 64.7167 49.5604 64.8144 49.5772C64.9122 49.594 65.0053 49.6038 65.0939 49.6038C65.2726 49.6038 65.4223 49.5758 65.546 49.5198C65.6697 49.4638 65.7705 49.3854 65.8514 49.286C65.9324 49.1866 65.9904 49.0676 66.0271 48.9276C66.0637 48.7876 66.0805 48.6322 66.0805 48.46V48.2612H66.0683C66.021 48.355 65.9614 48.4348 65.8896 48.5034C65.8178 48.572 65.7354 48.628 65.6437 48.6728C65.5521 48.7176 65.4544 48.7512 65.3505 48.775C65.2466 48.7988 65.1428 48.81 65.042 48.81C64.7961 48.81 64.5808 48.7694 64.399 48.6868C64.2157 48.6056 64.063 48.4936 63.9408 48.3536C63.8171 48.2136 63.7255 48.0512 63.6644 47.8664C63.6033 47.6816 63.5728 47.4856 63.5728 47.2798C63.5728 47.1006 63.5987 46.9186 63.6491 46.731C63.6995 46.5448 63.785 46.3725 63.9042 46.2171C64.0233 46.0617 64.1806 45.9343 64.3761 45.8349C64.5716 45.7355 64.8114 45.6865 65.0954 45.6865C65.3032 45.6865 65.4941 45.7285 65.6682 45.8125C65.8423 45.8965 65.9782 46.0211 66.076 46.1891H66.0821V45.7565H66.5922V48.5174ZM65.0771 48.3718C65.2558 48.3718 65.407 48.3382 65.5322 48.2696C65.6575 48.201 65.7583 48.1114 65.8346 48.0008C65.911 47.8902 65.9675 47.7642 66.0026 47.6242C66.0393 47.4842 66.0561 47.3442 66.0561 47.2042C66.0561 47.0726 66.0393 46.941 66.0057 46.8136C65.9721 46.6848 65.9171 46.57 65.8438 46.4663C65.769 46.3627 65.6728 46.2801 65.5536 46.2185C65.4345 46.1569 65.2909 46.1247 65.1214 46.1247C64.9473 46.1247 64.7992 46.1555 64.6754 46.2157C64.5517 46.2759 64.4509 46.3571 64.373 46.4579C64.2952 46.5588 64.2371 46.6764 64.2005 46.808C64.1638 46.941 64.147 47.0782 64.147 47.2224C64.147 47.3582 64.1623 47.4954 64.1913 47.6312C64.2203 47.767 64.2722 47.8916 64.344 48.0022C64.4158 48.1128 64.512 48.2024 64.6312 48.271C64.7503 48.3368 64.8984 48.3718 65.0771 48.3718Z" fill="#BCBEC0" stroke="#BCBEC0" stroke-width="0.25" stroke-miterlimit="10"/>
</svg>
