<svg width="20" height="20" viewBox="0 0 20 20" fill="none" xmlns="http://www.w3.org/2000/svg">
<path d="M17.8571 0H2.14286C1.57454 0 1.02949 0.220904 0.627628 0.614116C0.225765 1.00733 0 1.54064 0 2.09672L0 17.4727C0 18.0288 0.225765 18.5621 0.627628 18.9553C1.02949 19.3485 1.57454 19.5694 2.14286 19.5694H8.27009V12.9162H5.45759V9.78471H8.27009V7.39794C8.27009 4.68312 9.92188 3.18352 12.4518 3.18352C13.6634 3.18352 14.9304 3.39494 14.9304 3.39494V6.05953H13.5344C12.1589 6.05953 11.7299 6.89472 11.7299 7.75132V9.78471H14.8004L14.3094 12.9162H11.7299V19.5694H17.8571C18.4255 19.5694 18.9705 19.3485 19.3724 18.9553C19.7742 18.5621 20 18.0288 20 17.4727V2.09672C20 1.54064 19.7742 1.00733 19.3724 0.614116C18.9705 0.220904 18.4255 0 17.8571 0Z" fill="#BCBEC0"/>
</svg>
