<svg width="22" height="22" viewBox="0 0 22 22" fill="none" xmlns="http://www.w3.org/2000/svg">
<path d="M11.0022 5.76736C8.16453 5.76736 5.87563 8.00748 5.87563 10.7847C5.87563 13.5619 8.16453 15.8021 11.0022 15.8021C13.8399 15.8021 16.1288 13.5619 16.1288 10.7847C16.1288 8.00748 13.8399 5.76736 11.0022 5.76736ZM11.0022 14.0466C9.16843 14.0466 7.66927 12.5838 7.66927 10.7847C7.66927 8.98562 9.16397 7.52277 11.0022 7.52277C12.8405 7.52277 14.3352 8.98562 14.3352 10.7847C14.3352 12.5838 12.836 14.0466 11.0022 14.0466ZM17.5343 5.56212C17.5343 6.21276 16.9989 6.7324 16.3385 6.7324C15.6737 6.7324 15.1428 6.20839 15.1428 5.56212C15.1428 4.91585 15.6782 4.39184 16.3385 4.39184C16.9989 4.39184 17.5343 4.91585 17.5343 5.56212ZM20.9297 6.74987C20.8539 5.18222 20.488 3.7936 19.3146 2.64952C18.1456 1.50545 16.7267 1.14738 15.1249 1.06878C13.4741 0.977075 8.52593 0.977075 6.87507 1.06878C5.27775 1.14301 3.8589 1.50108 2.68544 2.64516C1.51199 3.78924 1.15059 5.17785 1.07027 6.7455C0.976576 8.36118 0.976576 13.2039 1.07027 14.8195C1.14612 16.3872 1.51199 17.7758 2.68544 18.9199C3.8589 20.064 5.27329 20.422 6.87507 20.5006C8.52593 20.5923 13.4741 20.5923 15.1249 20.5006C16.7267 20.4264 18.1456 20.0683 19.3146 18.9199C20.4835 17.7758 20.8494 16.3872 20.9297 14.8195C21.0234 13.2039 21.0234 8.36555 20.9297 6.74987ZM18.797 16.5531C18.449 17.409 17.7752 18.0684 16.8963 18.4133C15.58 18.9243 12.4568 18.8064 11.0022 18.8064C9.54769 18.8064 6.41997 18.9199 5.1082 18.4133C4.23369 18.0727 3.55996 17.4134 3.20747 16.5531C2.68544 15.2649 2.80591 12.2083 2.80591 10.7847C2.80591 9.36116 2.68991 6.30009 3.20747 5.01628C3.55549 4.16041 4.22922 3.50103 5.1082 3.15606C6.42443 2.64516 9.54769 2.76306 11.0022 2.76306C12.4568 2.76306 15.5845 2.64952 16.8963 3.15606C17.7708 3.49667 18.4445 4.15604 18.797 5.01628C19.319 6.30446 19.1986 9.36116 19.1986 10.7847C19.1986 12.2083 19.319 15.2693 18.797 16.5531Z" fill="#BCBEC0"/>
<path d="M11.0022 5.76736C8.16453 5.76736 5.87563 8.00748 5.87563 10.7847C5.87563 13.5619 8.16453 15.8021 11.0022 15.8021C13.8399 15.8021 16.1288 13.5619 16.1288 10.7847C16.1288 8.00748 13.8399 5.76736 11.0022 5.76736ZM11.0022 14.0466C9.16843 14.0466 7.66927 12.5838 7.66927 10.7847C7.66927 8.98562 9.16397 7.52277 11.0022 7.52277C12.8405 7.52277 14.3352 8.98562 14.3352 10.7847C14.3352 12.5838 12.836 14.0466 11.0022 14.0466ZM17.5343 5.56212C17.5343 6.21276 16.9989 6.7324 16.3385 6.7324C15.6737 6.7324 15.1428 6.20839 15.1428 5.56212C15.1428 4.91585 15.6782 4.39184 16.3385 4.39184C16.9989 4.39184 17.5343 4.91585 17.5343 5.56212ZM20.9297 6.74987C20.8539 5.18222 20.488 3.7936 19.3146 2.64952C18.1456 1.50545 16.7267 1.14738 15.1249 1.06878C13.4741 0.977075 8.52593 0.977075 6.87507 1.06878C5.27775 1.14301 3.8589 1.50108 2.68544 2.64516C1.51199 3.78924 1.15059 5.17785 1.07027 6.7455C0.976576 8.36118 0.976576 13.2039 1.07027 14.8195C1.14612 16.3872 1.51199 17.7758 2.68544 18.9199C3.8589 20.064 5.27329 20.422 6.87507 20.5006C8.52593 20.5923 13.4741 20.5923 15.1249 20.5006C16.7267 20.4264 18.1456 20.0683 19.3146 18.9199C20.4835 17.7758 20.8494 16.3872 20.9297 14.8195C21.0234 13.2039 21.0234 8.36555 20.9297 6.74987ZM18.797 16.5531C18.449 17.409 17.7752 18.0684 16.8963 18.4133C15.58 18.9243 12.4568 18.8064 11.0022 18.8064C9.54769 18.8064 6.41997 18.9199 5.1082 18.4133C4.23369 18.0727 3.55996 17.4134 3.20747 16.5531C2.68544 15.2649 2.80591 12.2083 2.80591 10.7847C2.80591 9.36116 2.68991 6.30009 3.20747 5.01628C3.55549 4.16041 4.22922 3.50103 5.1082 3.15606C6.42443 2.64516 9.54769 2.76306 11.0022 2.76306C12.4568 2.76306 15.5845 2.64952 16.8963 3.15606C17.7708 3.49667 18.4445 4.15604 18.797 5.01628C19.319 6.30446 19.1986 9.36116 19.1986 10.7847C19.1986 12.2083 19.319 15.2693 18.797 16.5531Z" stroke="#BCBEC0"/>
<path d="M11.0022 5.76736C8.16453 5.76736 5.87563 8.00748 5.87563 10.7847C5.87563 13.5619 8.16453 15.8021 11.0022 15.8021C13.8399 15.8021 16.1288 13.5619 16.1288 10.7847C16.1288 8.00748 13.8399 5.76736 11.0022 5.76736ZM11.0022 14.0466C9.16843 14.0466 7.66927 12.5838 7.66927 10.7847C7.66927 8.98562 9.16397 7.52277 11.0022 7.52277C12.8405 7.52277 14.3352 8.98562 14.3352 10.7847C14.3352 12.5838 12.836 14.0466 11.0022 14.0466ZM17.5343 5.56212C17.5343 6.21276 16.9989 6.7324 16.3385 6.7324C15.6737 6.7324 15.1428 6.20839 15.1428 5.56212C15.1428 4.91585 15.6782 4.39184 16.3385 4.39184C16.9989 4.39184 17.5343 4.91585 17.5343 5.56212ZM20.9297 6.74987C20.8539 5.18222 20.488 3.7936 19.3146 2.64952C18.1456 1.50545 16.7267 1.14738 15.1249 1.06878C13.4741 0.977075 8.52593 0.977075 6.87507 1.06878C5.27775 1.14301 3.8589 1.50108 2.68544 2.64516C1.51199 3.78924 1.15059 5.17785 1.07027 6.7455C0.976576 8.36118 0.976576 13.2039 1.07027 14.8195C1.14612 16.3872 1.51199 17.7758 2.68544 18.9199C3.8589 20.064 5.27329 20.422 6.87507 20.5006C8.52593 20.5923 13.4741 20.5923 15.1249 20.5006C16.7267 20.4264 18.1456 20.0683 19.3146 18.9199C20.4835 17.7758 20.8494 16.3872 20.9297 14.8195C21.0234 13.2039 21.0234 8.36555 20.9297 6.74987ZM18.797 16.5531C18.449 17.409 17.7752 18.0684 16.8963 18.4133C15.58 18.9243 12.4568 18.8064 11.0022 18.8064C9.54769 18.8064 6.41997 18.9199 5.1082 18.4133C4.23369 18.0727 3.55996 17.4134 3.20747 16.5531C2.68544 15.2649 2.80591 12.2083 2.80591 10.7847C2.80591 9.36116 2.68991 6.30009 3.20747 5.01628C3.55549 4.16041 4.22922 3.50103 5.1082 3.15606C6.42443 2.64516 9.54769 2.76306 11.0022 2.76306C12.4568 2.76306 15.5845 2.64952 16.8963 3.15606C17.7708 3.49667 18.4445 4.15604 18.797 5.01628C19.319 6.30446 19.1986 9.36116 19.1986 10.7847C19.1986 12.2083 19.319 15.2693 18.797 16.5531Z" stroke="#BCBEC0"/>
<path d="M11.0022 5.76736C8.16453 5.76736 5.87563 8.00748 5.87563 10.7847C5.87563 13.5619 8.16453 15.8021 11.0022 15.8021C13.8399 15.8021 16.1288 13.5619 16.1288 10.7847C16.1288 8.00748 13.8399 5.76736 11.0022 5.76736ZM11.0022 14.0466C9.16843 14.0466 7.66927 12.5838 7.66927 10.7847C7.66927 8.98562 9.16397 7.52277 11.0022 7.52277C12.8405 7.52277 14.3352 8.98562 14.3352 10.7847C14.3352 12.5838 12.836 14.0466 11.0022 14.0466ZM17.5343 5.56212C17.5343 6.21276 16.9989 6.7324 16.3385 6.7324C15.6737 6.7324 15.1428 6.20839 15.1428 5.56212C15.1428 4.91585 15.6782 4.39184 16.3385 4.39184C16.9989 4.39184 17.5343 4.91585 17.5343 5.56212ZM20.9297 6.74987C20.8539 5.18222 20.488 3.7936 19.3146 2.64952C18.1456 1.50545 16.7267 1.14738 15.1249 1.06878C13.4741 0.977075 8.52593 0.977075 6.87507 1.06878C5.27775 1.14301 3.8589 1.50108 2.68544 2.64516C1.51199 3.78924 1.15059 5.17785 1.07027 6.7455C0.976576 8.36118 0.976576 13.2039 1.07027 14.8195C1.14612 16.3872 1.51199 17.7758 2.68544 18.9199C3.8589 20.064 5.27329 20.422 6.87507 20.5006C8.52593 20.5923 13.4741 20.5923 15.1249 20.5006C16.7267 20.4264 18.1456 20.0683 19.3146 18.9199C20.4835 17.7758 20.8494 16.3872 20.9297 14.8195C21.0234 13.2039 21.0234 8.36555 20.9297 6.74987ZM18.797 16.5531C18.449 17.409 17.7752 18.0684 16.8963 18.4133C15.58 18.9243 12.4568 18.8064 11.0022 18.8064C9.54769 18.8064 6.41997 18.9199 5.1082 18.4133C4.23369 18.0727 3.55996 17.4134 3.20747 16.5531C2.68544 15.2649 2.80591 12.2083 2.80591 10.7847C2.80591 9.36116 2.68991 6.30009 3.20747 5.01628C3.55549 4.16041 4.22922 3.50103 5.1082 3.15606C6.42443 2.64516 9.54769 2.76306 11.0022 2.76306C12.4568 2.76306 15.5845 2.64952 16.8963 3.15606C17.7708 3.49667 18.4445 4.15604 18.797 5.01628C19.319 6.30446 19.1986 9.36116 19.1986 10.7847C19.1986 12.2083 19.319 15.2693 18.797 16.5531Z" stroke="#BCBEC0"/>
<path d="M11.0022 5.76736C8.16453 5.76736 5.87563 8.00748 5.87563 10.7847C5.87563 13.5619 8.16453 15.8021 11.0022 15.8021C13.8399 15.8021 16.1288 13.5619 16.1288 10.7847C16.1288 8.00748 13.8399 5.76736 11.0022 5.76736ZM11.0022 14.0466C9.16843 14.0466 7.66927 12.5838 7.66927 10.7847C7.66927 8.98562 9.16397 7.52277 11.0022 7.52277C12.8405 7.52277 14.3352 8.98562 14.3352 10.7847C14.3352 12.5838 12.836 14.0466 11.0022 14.0466ZM17.5343 5.56212C17.5343 6.21276 16.9989 6.7324 16.3385 6.7324C15.6737 6.7324 15.1428 6.20839 15.1428 5.56212C15.1428 4.91585 15.6782 4.39184 16.3385 4.39184C16.9989 4.39184 17.5343 4.91585 17.5343 5.56212ZM20.9297 6.74987C20.8539 5.18222 20.488 3.7936 19.3146 2.64952C18.1456 1.50545 16.7267 1.14738 15.1249 1.06878C13.4741 0.977075 8.52593 0.977075 6.87507 1.06878C5.27775 1.14301 3.8589 1.50108 2.68544 2.64516C1.51199 3.78924 1.15059 5.17785 1.07027 6.7455C0.976576 8.36118 0.976576 13.2039 1.07027 14.8195C1.14612 16.3872 1.51199 17.7758 2.68544 18.9199C3.8589 20.064 5.27329 20.422 6.87507 20.5006C8.52593 20.5923 13.4741 20.5923 15.1249 20.5006C16.7267 20.4264 18.1456 20.0683 19.3146 18.9199C20.4835 17.7758 20.8494 16.3872 20.9297 14.8195C21.0234 13.2039 21.0234 8.36555 20.9297 6.74987ZM18.797 16.5531C18.449 17.409 17.7752 18.0684 16.8963 18.4133C15.58 18.9243 12.4568 18.8064 11.0022 18.8064C9.54769 18.8064 6.41997 18.9199 5.1082 18.4133C4.23369 18.0727 3.55996 17.4134 3.20747 16.5531C2.68544 15.2649 2.80591 12.2083 2.80591 10.7847C2.80591 9.36116 2.68991 6.30009 3.20747 5.01628C3.55549 4.16041 4.22922 3.50103 5.1082 3.15606C6.42443 2.64516 9.54769 2.76306 11.0022 2.76306C12.4568 2.76306 15.5845 2.64952 16.8963 3.15606C17.7708 3.49667 18.4445 4.15604 18.797 5.01628C19.319 6.30446 19.1986 9.36116 19.1986 10.7847C19.1986 12.2083 19.319 15.2693 18.797 16.5531Z" stroke="#BCBEC0"/>
</svg>
