<svg width="20" height="20" viewBox="0 0 20 20" fill="none" xmlns="http://www.w3.org/2000/svg">
<path d="M18.5714 0H1.42411C0.638393 0 0 0.633385 0 1.41092V18.1585C0 18.936 0.638393 19.5694 1.42411 19.5694H18.5714C19.3571 19.5694 20 18.936 20 18.1585V1.41092C20 0.633385 19.3571 0 18.5714 0ZM6.04464 16.7738H3.08036V7.43463H6.04911V16.7738H6.04464ZM4.5625 6.15912C3.61161 6.15912 2.84375 5.40343 2.84375 4.47738C2.84375 3.55132 3.61161 2.79563 4.5625 2.79563C5.50893 2.79563 6.28125 3.55132 6.28125 4.47738C6.28125 5.4078 5.51339 6.15912 4.5625 6.15912ZM17.1562 16.7738H14.192V12.2309C14.192 11.1476 14.1696 9.75413 12.6518 9.75413C11.1071 9.75413 10.8705 10.9335 10.8705 12.1523V16.7738H7.90625V7.43463H10.75V8.71013H10.7902C11.1875 7.97628 12.1563 7.20311 13.5982 7.20311C16.5982 7.20311 17.1562 9.13822 17.1562 11.6543V16.7738Z" fill="#BCBEC0"/>
</svg>
