<svg width="1298" height="443" viewBox="0 0 1298 443" fill="none" xmlns="http://www.w3.org/2000/svg">
<mask id="mask0_181_1010" style="mask-type:luminance" maskUnits="userSpaceOnUse" x="1138" y="9" width="160" height="163">
<path d="M1138 8.99983V171.632L1297.24 171.632V8.99983L1138 8.99983Z" fill="white"/>
</mask>
<g mask="url(#mask0_181_1010)">
<path d="M1144.92 18.4328L1287.86 18.4328V162.131H1297.24V8.99983L1144.92 8.99983V18.4328Z" fill="#F8ECD9"/>
<path d="M1144.92 18.4328L1287.86 18.4328V162.131H1297.24V8.99983L1144.92 8.99983V18.4328Z" fill="black" fill-opacity="0.2"/>
</g>
<g clip-path="url(#clip0_181_1010)">
<path fill-rule="evenodd" clip-rule="evenodd" d="M403.5 334H383.88V225H381.7V334H372.98V225H370.8V334H362.08V225H359.9V334H351.18V225H349V334H240V336.18H349V344.9H240V347.08H349V355.8H240V357.98H349V366.7H240V368.88H349V388.5C349 418.6 373.4 443 403.5 443C433.6 443 458 418.6 458 388.5C458 358.4 433.6 334 403.5 334ZM359.9 344.9H351.18V336.18H359.9V344.9ZM362.08 344.9H370.8V336.18H362.08V344.9ZM372.98 344.9H381.7V336.18H372.98V344.9ZM383.88 344.9V336.18H403.5C432.396 336.18 455.82 359.604 455.82 388.5C455.82 417.396 432.396 440.82 403.5 440.82C374.604 440.82 351.18 417.396 351.18 388.5V368.88H359.9V388.5C359.9 412.58 379.42 432.1 403.5 432.1C427.58 432.1 447.1 412.58 447.1 388.5C447.1 364.42 427.58 344.9 403.5 344.9H383.88ZM359.9 366.7H351.18V357.98H359.9V366.7ZM362.08 368.88V388.5C362.08 411.376 380.624 429.92 403.5 429.92C426.376 429.92 444.92 411.376 444.92 388.5C444.92 365.624 426.376 347.08 403.5 347.08H383.88V355.8H403.5C421.56 355.8 436.2 370.44 436.2 388.5C436.2 406.56 421.56 421.2 403.5 421.2C385.44 421.2 370.8 406.56 370.8 388.5V368.88H362.08ZM372.98 355.8H381.7V347.08H372.98V355.8ZM370.8 347.08V355.8H362.08V347.08H370.8ZM370.8 357.98V366.7H362.08V357.98H370.8ZM372.98 388.5V368.88H381.7V388.5C381.7 400.54 391.46 410.3 403.5 410.3C415.54 410.3 425.3 400.54 425.3 388.5C425.3 376.46 415.54 366.7 403.5 366.7H383.88V357.98H403.5C420.356 357.98 434.02 371.644 434.02 388.5C434.02 405.356 420.356 419.02 403.5 419.02C386.644 419.02 372.98 405.356 372.98 388.5ZM383.88 388.5C383.88 399.336 392.664 408.12 403.5 408.12C414.336 408.12 423.12 399.336 423.12 388.5C423.12 377.664 414.336 368.88 403.5 368.88H383.88V388.5ZM381.7 366.7V357.98H372.98V366.7H381.7ZM359.9 355.8H351.18V347.08H359.9V355.8Z" fill="#F8ECD9"/>
<path fill-rule="evenodd" clip-rule="evenodd" d="M403.5 334H383.88V225H381.7V334H372.98V225H370.8V334H362.08V225H359.9V334H351.18V225H349V334H240V336.18H349V344.9H240V347.08H349V355.8H240V357.98H349V366.7H240V368.88H349V388.5C349 418.6 373.4 443 403.5 443C433.6 443 458 418.6 458 388.5C458 358.4 433.6 334 403.5 334ZM359.9 344.9H351.18V336.18H359.9V344.9ZM362.08 344.9H370.8V336.18H362.08V344.9ZM372.98 344.9H381.7V336.18H372.98V344.9ZM383.88 344.9V336.18H403.5C432.396 336.18 455.82 359.604 455.82 388.5C455.82 417.396 432.396 440.82 403.5 440.82C374.604 440.82 351.18 417.396 351.18 388.5V368.88H359.9V388.5C359.9 412.58 379.42 432.1 403.5 432.1C427.58 432.1 447.1 412.58 447.1 388.5C447.1 364.42 427.58 344.9 403.5 344.9H383.88ZM359.9 366.7H351.18V357.98H359.9V366.7ZM362.08 368.88V388.5C362.08 411.376 380.624 429.92 403.5 429.92C426.376 429.92 444.92 411.376 444.92 388.5C444.92 365.624 426.376 347.08 403.5 347.08H383.88V355.8H403.5C421.56 355.8 436.2 370.44 436.2 388.5C436.2 406.56 421.56 421.2 403.5 421.2C385.44 421.2 370.8 406.56 370.8 388.5V368.88H362.08ZM372.98 355.8H381.7V347.08H372.98V355.8ZM370.8 347.08V355.8H362.08V347.08H370.8ZM370.8 357.98V366.7H362.08V357.98H370.8ZM372.98 388.5V368.88H381.7V388.5C381.7 400.54 391.46 410.3 403.5 410.3C415.54 410.3 425.3 400.54 425.3 388.5C425.3 376.46 415.54 366.7 403.5 366.7H383.88V357.98H403.5C420.356 357.98 434.02 371.644 434.02 388.5C434.02 405.356 420.356 419.02 403.5 419.02C386.644 419.02 372.98 405.356 372.98 388.5ZM383.88 388.5C383.88 399.336 392.664 408.12 403.5 408.12C414.336 408.12 423.12 399.336 423.12 388.5C423.12 377.664 414.336 368.88 403.5 368.88H383.88V388.5ZM381.7 366.7V357.98H372.98V366.7H381.7ZM359.9 355.8H351.18V347.08H359.9V355.8Z" fill="black" fill-opacity="0.2"/>
</g>
<rect y="165" width="373" height="196" fill="#F8ECD9" fill-opacity="0.5"/>
<path d="M361.168 60.751L336.554 34.3135L331.316 39.9385L350.956 60.751L331.316 81.8447L336.554 87.4697L361.168 60.751Z" fill="#F8ECD9" fill-opacity="0.78"/>
<path d="M321.104 60.751L296.49 34.3135L291.253 39.9385L310.63 60.751L291.253 81.8447L296.49 87.4697L321.104 60.751Z" fill="#F8ECD9" fill-opacity="0.78"/>
<path d="M281.041 60.751L256.165 34.3135L251.19 39.9385L270.567 60.751L251.19 81.8447L256.165 87.4697L281.041 60.751Z" fill="#F8ECD9" fill-opacity="0.78"/>
<path d="M240.714 60.751L216.1 34.3135L210.863 39.9385L230.502 60.751L210.863 81.8447L216.1 87.4697L240.714 60.751Z" fill="#F8ECD9" fill-opacity="0.78"/>
<path d="M200.651 60.751L176.036 34.3135L170.799 39.9385L190.438 60.751L170.799 81.8447L176.036 87.4697L200.651 60.751Z" fill="#F8ECD9" fill-opacity="0.78"/>
<path d="M160.587 60.751L135.973 34.3135L130.736 39.9385L150.375 60.751L130.736 81.8447L135.973 87.4697L160.587 60.751Z" fill="#F8ECD9" fill-opacity="0.78"/>
<path d="M339.171 27.8438L314.557 1.40625L309.32 7.03125L328.959 27.8438L309.32 48.9375L314.557 54.2812L339.171 27.8438Z" fill="#F8ECD9" fill-opacity="0.42"/>
<path d="M339.171 27.8438L314.557 1.40625L309.32 7.03125L328.959 27.8438L309.32 48.9375L314.557 54.2812L339.171 27.8438Z" fill="black" fill-opacity="0.2"/>
<path d="M299.108 27.8438L274.493 1.40625L269.256 7.03125L288.896 27.8438L269.256 48.9375L274.493 54.2812L299.108 27.8438Z" fill="#F8ECD9" fill-opacity="0.42"/>
<path d="M299.108 27.8438L274.493 1.40625L269.256 7.03125L288.896 27.8438L269.256 48.9375L274.493 54.2812L299.108 27.8438Z" fill="black" fill-opacity="0.2"/>
<path d="M259.044 27.8438L234.43 1.40625L229.193 7.03125L248.832 27.8438L229.193 48.9375L234.43 54.2812L259.044 27.8438Z" fill="#F8ECD9" fill-opacity="0.42"/>
<path d="M259.044 27.8438L234.43 1.40625L229.193 7.03125L248.832 27.8438L229.193 48.9375L234.43 54.2812L259.044 27.8438Z" fill="black" fill-opacity="0.2"/>
<path d="M218.978 27.8438L194.364 1.40625L189.127 7.03125L208.504 27.8438L189.127 48.9375L194.364 54.2812L218.978 27.8438Z" fill="#F8ECD9" fill-opacity="0.42"/>
<path d="M218.978 27.8438L194.364 1.40625L189.127 7.03125L208.504 27.8438L189.127 48.9375L194.364 54.2812L218.978 27.8438Z" fill="black" fill-opacity="0.2"/>
<path d="M178.915 27.8438L154.039 1.40625L149.063 7.03125L168.441 27.8438L149.063 48.9375L154.039 54.2812L178.915 27.8438Z" fill="#F8ECD9" fill-opacity="0.42"/>
<path d="M178.915 27.8438L154.039 1.40625L149.063 7.03125L168.441 27.8438L149.063 48.9375L154.039 54.2812L178.915 27.8438Z" fill="black" fill-opacity="0.2"/>
<path d="M138.852 27.8438L113.975 1.40625L109 7.03125L128.377 27.8438L109 48.9375L113.975 54.2812L138.852 27.8438Z" fill="#F8ECD9" fill-opacity="0.42"/>
<path d="M138.852 27.8438L113.975 1.40625L109 7.03125L128.377 27.8438L109 48.9375L113.975 54.2812L138.852 27.8438Z" fill="black" fill-opacity="0.2"/>
<defs>
<clipPath id="clip0_181_1010">
<rect width="218" height="218" fill="white" transform="translate(240 225)"/>
</clipPath>
</defs>
</svg>
