<svg width="1362" height="160" viewBox="0 0 1362 160" fill="none" xmlns="http://www.w3.org/2000/svg">
<path d="M91.7326 113.276C90.9114 113.346 90.0956 113.428 89.2798 113.504L45.8662 69.2423C46.2661 68.7476 46.6713 68.2475 47.0926 67.7637L91.7326 113.276Z" fill="black"/>
<path d="M91.7326 113.276C90.9114 113.346 90.0956 113.428 89.2798 113.504L45.8662 69.2423C46.2661 68.7476 46.6713 68.2475 47.0926 67.7637L91.7326 113.276Z" fill="black" fill-opacity="0.2"/>
<path d="M101.926 111.59L99.4307 111.81L50.9629 63.7546C51.5041 63.379 52.0452 63.0196 52.5864 62.6816L101.926 111.59Z" fill="black"/>
<path d="M101.926 111.59L99.4307 111.81L50.9629 63.7546C51.5041 63.379 52.0452 63.0196 52.5864 62.6816L101.926 111.59Z" fill="black" fill-opacity="0.2"/>
<path d="M112.118 111.598L109.608 111.81L57.7578 60.0434C58.404 59.7824 59.0629 59.5322 59.7344 59.293L112.118 111.598Z" fill="black"/>
<path d="M112.118 111.598L109.608 111.81L57.7578 60.0434C58.404 59.7824 59.0629 59.5322 59.7344 59.293L112.118 111.598Z" fill="black" fill-opacity="0.2"/>
<path d="M120.611 109.907C119.8 109.971 118.984 110.041 118.173 110.116L66.251 57.4388C66.5422 57.3339 66.7994 57.1499 66.9945 56.9068C67.1895 56.6636 67.315 56.3708 67.357 56.0602C67.357 56.0122 67.357 55.9587 67.357 55.9053L120.611 109.907Z" fill="black"/>
<path d="M120.611 109.907C119.8 109.971 118.984 110.041 118.173 110.116L66.251 57.4388C66.5422 57.3339 66.7994 57.1499 66.9945 56.9068C67.1895 56.6636 67.315 56.3708 67.357 56.0602C67.357 56.0122 67.357 55.9587 67.357 55.9053L120.611 109.907Z" fill="black" fill-opacity="0.2"/>
<path d="M130.804 109.908L128.358 110.116L69.6484 50.8858C69.9231 50.2892 70.2295 49.7032 70.5517 49.1279L130.804 109.908Z" fill="black"/>
<path d="M130.804 109.908L128.358 110.116L69.6484 50.8858C69.9231 50.2892 70.2295 49.7032 70.5517 49.1279L130.804 109.908Z" fill="black" fill-opacity="0.2"/>
<path d="M140.997 108.219L138.497 108.421L73.0469 43.7215C73.4672 43.2474 73.9144 42.7893 74.3671 42.3525L140.997 108.219Z" fill="black"/>
<path d="M140.997 108.219L138.497 108.421L73.0469 43.7215C73.4672 43.2474 73.9144 42.7893 74.3671 42.3525L140.997 108.219Z" fill="black" fill-opacity="0.2"/>
<path d="M151.189 108.21L148.715 108.422L79.8418 38.3864L81.4419 37.2695L151.189 108.21Z" fill="black"/>
<path d="M151.189 108.21L148.715 108.422L79.8418 38.3864L81.4419 37.2695L151.189 108.21Z" fill="black" fill-opacity="0.2"/>
<path d="M159.683 106.52L157.209 106.728L84.9375 34.7282C85.4451 34.4674 85.9634 34.2225 86.4924 33.9989L86.7702 33.8818L159.683 106.52Z" fill="black"/>
<path d="M159.683 106.52L157.209 106.728L84.9375 34.7282C85.4451 34.4674 85.9634 34.2225 86.4924 33.9989L86.7702 33.8818L159.683 106.52Z" fill="black" fill-opacity="0.2"/>
<path d="M169.876 106.504C169.381 106.557 168.887 106.6 168.398 106.642L167.43 106.727L93.4316 32.7561C94.1281 32.5489 94.8298 32.3576 95.5316 32.1875L169.876 106.504Z" fill="black"/>
<path d="M169.876 106.504C169.381 106.557 168.887 106.6 168.398 106.642L167.43 106.727L93.4316 32.7561C94.1281 32.5489 94.8298 32.3576 95.5316 32.1875L169.876 106.504Z" fill="black" fill-opacity="0.2"/>
<path d="M178.369 104.312L178.055 104.426C177.513 104.632 176.933 104.838 176.37 105.034L101.925 30.4941C102.798 30.65 103.658 30.8711 104.498 31.1556L104.731 31.2477L106.074 31.9255L178.369 104.312Z" fill="black"/>
<path d="M178.369 104.312L178.055 104.426C177.513 104.632 176.933 104.838 176.37 105.034L101.925 30.4941C102.798 30.65 103.658 30.8711 104.498 31.1556L104.731 31.2477L106.074 31.9255L178.369 104.312Z" fill="black" fill-opacity="0.2"/>
<path d="M183.466 100.416L183.423 100.459C182.997 100.904 182.525 101.302 182.016 101.645L118.913 37.2695C119.816 37.2695 120.718 37.302 121.611 37.3725H121.685L183.466 100.416Z" fill="black"/>
<path d="M183.466 100.416L183.423 100.459C182.997 100.904 182.525 101.302 182.016 101.645L118.913 37.2695C119.816 37.2695 120.718 37.302 121.611 37.3725H121.685L183.466 100.416Z" fill="black" fill-opacity="0.2"/>
<path d="M136.035 39.9693L156.285 61.6297C156.285 61.9556 156.285 62.2815 156.244 62.6074C156.203 62.9334 156.193 63.2041 156.156 63.4968C156.119 63.7942 156.155 64.0968 156.26 64.3752L132.503 38.9639C133.696 39.2622 134.894 39.5881 136.035 39.9693Z" fill="black"/>
<path d="M136.035 39.9693L156.285 61.6297C156.285 61.9556 156.285 62.2815 156.244 62.6074C156.203 62.9334 156.193 63.2041 156.156 63.4968C156.119 63.7942 156.155 64.0968 156.26 64.3752L132.503 38.9639C133.696 39.2622 134.894 39.5881 136.035 39.9693Z" fill="black" fill-opacity="0.2"/>
<path d="M188.562 93.0836C188.305 93.6944 188.016 94.2906 187.697 94.8696L157.984 64.376C158.089 64.4232 158.198 64.4571 158.311 64.477C159.274 64.6435 160.236 64.8207 161.196 65.0085L188.562 93.0836Z" fill="black"/>
<path d="M188.562 93.0836C188.305 93.6944 188.016 94.2906 187.697 94.8696L157.984 64.376C158.089 64.4232 158.198 64.4571 158.311 64.477C159.274 64.6435 160.236 64.8207 161.196 65.0085L188.562 93.0836Z" fill="black" fill-opacity="0.2"/>
<path d="M190.259 86.3986L171.574 67.7637C172.889 68.1571 174.188 68.5867 175.472 69.0526L190.057 83.593C190.204 84.5208 190.271 85.4594 190.259 86.3986Z" fill="black"/>
<path d="M190.259 86.3986L171.574 67.7637C172.889 68.1571 174.188 68.5867 175.472 69.0526L190.057 83.593C190.204 84.5208 190.271 85.4594 190.259 86.3986Z" fill="black" fill-opacity="0.2"/>
<path d="M83.2388 113.278L80.7574 113.504L42.4688 76.3236C42.7451 75.7238 43.043 75.1293 43.3518 74.54L83.2388 113.278Z" fill="black"/>
<path d="M83.2388 113.278L80.7574 113.504L42.4688 76.3236C42.7451 75.7238 43.043 75.1293 43.3518 74.54L83.2388 113.278Z" fill="black" fill-opacity="0.2"/>
<path d="M73.0464 114.954L70.5699 115.198L39.0713 84.412C39.4043 84.3294 39.7049 84.1523 39.9349 83.9028C40.165 83.6534 40.3142 83.3429 40.3638 83.0107L73.0464 114.954Z" fill="black"/>
<path d="M73.0464 114.954L70.5699 115.198L39.0713 84.412C39.4043 84.3294 39.7049 84.1523 39.9349 83.9028C40.165 83.6534 40.3142 83.3429 40.3638 83.0107L73.0464 114.954Z" fill="black" fill-opacity="0.2"/>
<path d="M62.8535 114.931L60.4884 115.198L30.5771 84.9981L32.8956 84.7051L62.8535 114.931Z" fill="black"/>
<path d="M62.8535 114.931L60.4884 115.198L30.5771 84.9981L32.8956 84.7051L62.8535 114.931Z" fill="black" fill-opacity="0.2"/>
<path d="M54.3599 116.619L51.8895 116.892L20.3848 86.714L22.8167 86.3984L54.3599 116.619Z" fill="black"/>
<path d="M54.3599 116.619L51.8895 116.892L20.3848 86.714L22.8167 86.3984L54.3599 116.619Z" fill="black" fill-opacity="0.2"/>
<path d="M44.1674 118.284L41.7978 118.586L13.5898 89.203C13.7904 89.0711 13.9909 88.9392 14.1968 88.8183C14.2681 88.7751 14.3369 88.7274 14.4026 88.6754C14.6559 88.4665 14.9303 88.2742 15.1731 88.0928L44.1674 118.284Z" fill="black"/>
<path d="M44.1674 118.284L41.7978 118.586L13.5898 89.203C13.7904 89.0711 13.9909 88.9392 14.1968 88.8183C14.2681 88.7751 14.3369 88.7274 14.4026 88.6754C14.6559 88.4665 14.9303 88.2742 15.1731 88.0928L44.1674 118.284Z" fill="black" fill-opacity="0.2"/>
<path d="M35.6742 118.281L33.2441 118.586L8.49414 94.7896C8.7814 94.2841 9.1032 93.7973 9.45743 93.3326C9.49027 93.28 9.52311 93.2274 9.56142 93.1748L35.6742 118.281Z" fill="black"/>
<path d="M35.6742 118.281L33.2441 118.586L8.49414 94.7896C8.7814 94.2841 9.1032 93.7973 9.45743 93.3326C9.49027 93.28 9.52311 93.2274 9.56142 93.1748L35.6742 118.281Z" fill="black" fill-opacity="0.2"/>
<path d="M25.4812 120.155C24.66 120.256 23.8323 120.296 23.0052 120.274L6.79699 104.055C6.78206 103.247 6.848 102.44 6.99383 101.645L25.4812 120.155Z" fill="black"/>
<path d="M25.4812 120.155C24.66 120.256 23.8323 120.296 23.0052 120.274L6.79699 104.055C6.78206 103.247 6.848 102.44 6.99383 101.645L25.4812 120.155Z" fill="black" fill-opacity="0.2"/>
<path d="M1270.27 113.276C1271.09 113.346 1271.9 113.428 1272.72 113.504L1316.13 69.2423C1315.73 68.7476 1315.33 68.2475 1314.91 67.7637L1270.27 113.276Z" fill="black"/>
<path d="M1270.27 113.276C1271.09 113.346 1271.9 113.428 1272.72 113.504L1316.13 69.2423C1315.73 68.7476 1315.33 68.2475 1314.91 67.7637L1270.27 113.276Z" fill="black" fill-opacity="0.2"/>
<path d="M1260.07 111.59L1262.57 111.81L1311.04 63.7546C1310.5 63.379 1309.95 63.0196 1309.41 62.6816L1260.07 111.59Z" fill="black"/>
<path d="M1260.07 111.59L1262.57 111.81L1311.04 63.7546C1310.5 63.379 1309.95 63.0196 1309.41 62.6816L1260.07 111.59Z" fill="black" fill-opacity="0.2"/>
<path d="M1249.88 111.598L1252.39 111.81L1304.24 60.0434C1303.6 59.7824 1302.94 59.5322 1302.27 59.293L1249.88 111.598Z" fill="black"/>
<path d="M1249.88 111.598L1252.39 111.81L1304.24 60.0434C1303.6 59.7824 1302.94 59.5322 1302.27 59.293L1249.88 111.598Z" fill="black" fill-opacity="0.2"/>
<path d="M1241.39 109.907C1242.2 109.971 1243.02 110.041 1243.83 110.116L1295.75 57.4388C1295.46 57.3339 1295.2 57.1499 1295.01 56.9068C1294.81 56.6636 1294.69 56.3708 1294.64 56.0602C1294.64 56.0122 1294.64 55.9587 1294.64 55.9053L1241.39 109.907Z" fill="black"/>
<path d="M1241.39 109.907C1242.2 109.971 1243.02 110.041 1243.83 110.116L1295.75 57.4388C1295.46 57.3339 1295.2 57.1499 1295.01 56.9068C1294.81 56.6636 1294.69 56.3708 1294.64 56.0602C1294.64 56.0122 1294.64 55.9587 1294.64 55.9053L1241.39 109.907Z" fill="black" fill-opacity="0.2"/>
<path d="M1231.2 109.908L1233.64 110.116L1292.35 50.8858C1292.08 50.2892 1291.77 49.7032 1291.45 49.1279L1231.2 109.908Z" fill="black"/>
<path d="M1231.2 109.908L1233.64 110.116L1292.35 50.8858C1292.08 50.2892 1291.77 49.7032 1291.45 49.1279L1231.2 109.908Z" fill="black" fill-opacity="0.2"/>
<path d="M1221 108.219L1223.5 108.421L1288.95 43.7215C1288.53 43.2474 1288.09 42.7893 1287.63 42.3525L1221 108.219Z" fill="black"/>
<path d="M1221 108.219L1223.5 108.421L1288.95 43.7215C1288.53 43.2474 1288.09 42.7893 1287.63 42.3525L1221 108.219Z" fill="black" fill-opacity="0.2"/>
<path d="M1210.81 108.21L1213.29 108.422L1282.16 38.3864L1280.56 37.2695L1210.81 108.21Z" fill="black"/>
<path d="M1210.81 108.21L1213.29 108.422L1282.16 38.3864L1280.56 37.2695L1210.81 108.21Z" fill="black" fill-opacity="0.2"/>
<path d="M1202.32 106.52L1204.79 106.728L1277.06 34.7282C1276.55 34.4674 1276.04 34.2225 1275.51 33.9989L1275.23 33.8818L1202.32 106.52Z" fill="black"/>
<path d="M1202.32 106.52L1204.79 106.728L1277.06 34.7282C1276.55 34.4674 1276.04 34.2225 1275.51 33.9989L1275.23 33.8818L1202.32 106.52Z" fill="black" fill-opacity="0.2"/>
<path d="M1192.12 106.504C1192.62 106.557 1193.11 106.6 1193.6 106.642L1194.57 106.727L1268.57 32.7561C1267.87 32.5489 1267.17 32.3576 1266.47 32.1875L1192.12 106.504Z" fill="black"/>
<path d="M1192.12 106.504C1192.62 106.557 1193.11 106.6 1193.6 106.642L1194.57 106.727L1268.57 32.7561C1267.87 32.5489 1267.17 32.3576 1266.47 32.1875L1192.12 106.504Z" fill="black" fill-opacity="0.2"/>
<path d="M1183.63 104.312L1183.95 104.426C1184.49 104.632 1185.07 104.838 1185.63 105.034L1260.08 30.4941C1259.2 30.65 1258.34 30.8711 1257.5 31.1556L1257.27 31.2477L1255.93 31.9255L1183.63 104.312Z" fill="black"/>
<path d="M1183.63 104.312L1183.95 104.426C1184.49 104.632 1185.07 104.838 1185.63 105.034L1260.08 30.4941C1259.2 30.65 1258.34 30.8711 1257.5 31.1556L1257.27 31.2477L1255.93 31.9255L1183.63 104.312Z" fill="black" fill-opacity="0.2"/>
<path d="M1178.53 100.416L1178.58 100.459C1179 100.904 1179.47 101.302 1179.98 101.645L1243.09 37.2695C1242.18 37.2695 1241.28 37.302 1240.39 37.3725H1240.31L1178.53 100.416Z" fill="black"/>
<path d="M1178.53 100.416L1178.58 100.459C1179 100.904 1179.47 101.302 1179.98 101.645L1243.09 37.2695C1242.18 37.2695 1241.28 37.302 1240.39 37.3725H1240.31L1178.53 100.416Z" fill="black" fill-opacity="0.2"/>
<path d="M1225.97 39.9693L1205.72 61.6297C1205.72 61.9556 1205.72 62.2815 1205.76 62.6074C1205.8 62.9334 1205.81 63.2041 1205.84 63.4968C1205.88 63.7942 1205.85 64.0968 1205.74 64.3752L1229.5 38.9639C1228.3 39.2622 1227.11 39.5881 1225.97 39.9693Z" fill="black"/>
<path d="M1225.97 39.9693L1205.72 61.6297C1205.72 61.9556 1205.72 62.2815 1205.76 62.6074C1205.8 62.9334 1205.81 63.2041 1205.84 63.4968C1205.88 63.7942 1205.85 64.0968 1205.74 64.3752L1229.5 38.9639C1228.3 39.2622 1227.11 39.5881 1225.97 39.9693Z" fill="black" fill-opacity="0.2"/>
<path d="M1173.44 93.0836C1173.69 93.6944 1173.98 94.2906 1174.3 94.8696L1204.02 64.376C1203.91 64.4232 1203.8 64.4571 1203.69 64.477C1202.73 64.6435 1201.76 64.8207 1200.8 65.0085L1173.44 93.0836Z" fill="black"/>
<path d="M1173.44 93.0836C1173.69 93.6944 1173.98 94.2906 1174.3 94.8696L1204.02 64.376C1203.91 64.4232 1203.8 64.4571 1203.69 64.477C1202.73 64.6435 1201.76 64.8207 1200.8 65.0085L1173.44 93.0836Z" fill="black" fill-opacity="0.2"/>
<path d="M1171.74 86.3986L1190.43 67.7637C1189.11 68.1571 1187.81 68.5867 1186.53 69.0526L1171.94 83.593C1171.8 84.5208 1171.73 85.4594 1171.74 86.3986Z" fill="black"/>
<path d="M1171.74 86.3986L1190.43 67.7637C1189.11 68.1571 1187.81 68.5867 1186.53 69.0526L1171.94 83.593C1171.8 84.5208 1171.73 85.4594 1171.74 86.3986Z" fill="black" fill-opacity="0.2"/>
<path d="M1278.76 113.278L1281.24 113.504L1319.53 76.3236C1319.25 75.7238 1318.96 75.1293 1318.65 74.54L1278.76 113.278Z" fill="black"/>
<path d="M1278.76 113.278L1281.24 113.504L1319.53 76.3236C1319.25 75.7238 1318.96 75.1293 1318.65 74.54L1278.76 113.278Z" fill="black" fill-opacity="0.2"/>
<path d="M1288.95 114.954L1291.43 115.198L1322.93 84.412C1322.6 84.3294 1322.3 84.1523 1322.07 83.9028C1321.84 83.6534 1321.69 83.3429 1321.64 83.0107L1288.95 114.954Z" fill="black"/>
<path d="M1288.95 114.954L1291.43 115.198L1322.93 84.412C1322.6 84.3294 1322.3 84.1523 1322.07 83.9028C1321.84 83.6534 1321.69 83.3429 1321.64 83.0107L1288.95 114.954Z" fill="black" fill-opacity="0.2"/>
<path d="M1299.15 114.931L1301.51 115.198L1331.42 84.9981L1329.1 84.7051L1299.15 114.931Z" fill="black"/>
<path d="M1299.15 114.931L1301.51 115.198L1331.42 84.9981L1329.1 84.7051L1299.15 114.931Z" fill="black" fill-opacity="0.2"/>
<path d="M1307.64 116.619L1310.11 116.892L1341.62 86.714L1339.18 86.3984L1307.64 116.619Z" fill="black"/>
<path d="M1307.64 116.619L1310.11 116.892L1341.62 86.714L1339.18 86.3984L1307.64 116.619Z" fill="black" fill-opacity="0.2"/>
<path d="M1317.83 118.284L1320.2 118.586L1348.41 89.203C1348.21 89.0711 1348.01 88.9392 1347.8 88.8183C1347.73 88.7751 1347.66 88.7274 1347.6 88.6754C1347.34 88.4665 1347.07 88.2742 1346.83 88.0928L1317.83 118.284Z" fill="black"/>
<path d="M1317.83 118.284L1320.2 118.586L1348.41 89.203C1348.21 89.0711 1348.01 88.9392 1347.8 88.8183C1347.73 88.7751 1347.66 88.7274 1347.6 88.6754C1347.34 88.4665 1347.07 88.2742 1346.83 88.0928L1317.83 118.284Z" fill="black" fill-opacity="0.2"/>
<path d="M1326.33 118.281L1328.76 118.586L1353.51 94.7896C1353.22 94.2841 1352.9 93.7973 1352.54 93.3326C1352.51 93.28 1352.48 93.2274 1352.44 93.1748L1326.33 118.281Z" fill="black"/>
<path d="M1326.33 118.281L1328.76 118.586L1353.51 94.7896C1353.22 94.2841 1352.9 93.7973 1352.54 93.3326C1352.51 93.28 1352.48 93.2274 1352.44 93.1748L1326.33 118.281Z" fill="black" fill-opacity="0.2"/>
<path d="M1336.52 120.155C1337.34 120.256 1338.17 120.296 1338.99 120.274L1355.2 104.055C1355.22 103.247 1355.15 102.44 1355.01 101.645L1336.52 120.155Z" fill="black"/>
<path d="M1336.52 120.155C1337.34 120.256 1338.17 120.296 1338.99 120.274L1355.2 104.055C1355.22 103.247 1355.15 102.44 1355.01 101.645L1336.52 120.155Z" fill="black" fill-opacity="0.2"/>
</svg>
