<svg width="1440" height="725" viewBox="0 0 1440 725" fill="none" xmlns="http://www.w3.org/2000/svg">
<g clip-path="url(#clip0_215_24)">
<path d="M1479 35.1222C1526.52 81.9046 1526.52 157.607 1479 204.389L1306.78 34.8387C1354.58 -11.66 1431.48 -11.66 1479 35.1222Z" fill="black"/>
<path d="M1479 35.1222C1526.52 81.9046 1526.52 157.607 1479 204.389L1306.78 34.8387C1354.58 -11.66 1431.48 -11.66 1479 35.1222Z" fill="black" fill-opacity="0.2"/>
<path d="M1474.1 68.5783C1521.62 115.361 1521.62 191.063 1474.1 237.846L1301.88 68.2947C1349.4 21.796 1426.58 21.796 1474.1 68.5783Z" stroke="#9D9D9D" stroke-width="2" stroke-miterlimit="10" stroke-linecap="round" stroke-linejoin="round"/>
</g>
<g clip-path="url(#clip1_215_24)">
<path d="M-44.3822 663.29C-84.523 610.041 -73.4145 535.158 -19.5441 495.855L125.936 688.842C71.8223 727.822 -4.24136 716.539 -44.3822 663.29Z" fill="black"/>
<path d="M-44.3822 663.29C-84.523 610.041 -73.4145 535.158 -19.5441 495.855L125.936 688.842C71.8223 727.822 -4.24136 716.539 -44.3822 663.29Z" fill="black" fill-opacity="0.2"/>
<path d="M-34.6293 630.914C-74.7701 577.665 -63.6616 502.782 -9.79115 463.479L135.689 656.466C81.8601 695.489 5.51157 684.163 -34.6293 630.914Z" stroke="#9D9D9D" stroke-width="2" stroke-miterlimit="10" stroke-linecap="round" stroke-linejoin="round"/>
</g>
<defs>
<clipPath id="clip0_215_24">
<rect width="216" height="241" fill="white" transform="translate(1299)"/>
</clipPath>
<clipPath id="clip1_215_24">
<rect width="216" height="241" fill="white" transform="translate(128.516 724.444) rotate(-171.562)"/>
</clipPath>
</defs>
</svg>
