<svg width="815" height="78" viewBox="0 0 815 78" fill="none" xmlns="http://www.w3.org/2000/svg">
<path d="M2.72754 7.63184L25.0912 29.2108L2.72754 50.7897" stroke="black" stroke-width="2" stroke-miterlimit="10"/>
<path d="M2.72754 7.63184L25.0912 29.2108L2.72754 50.7897" stroke="black" stroke-opacity="0.2" stroke-width="2" stroke-miterlimit="10"/>
<path d="M25.0918 7.63184L47.1827 29.2108L25.0918 50.7897" stroke="black" stroke-width="2" stroke-miterlimit="10"/>
<path d="M25.0918 7.63184L47.1827 29.2108L25.0918 50.7897" stroke="black" stroke-opacity="0.2" stroke-width="2" stroke-miterlimit="10"/>
<path d="M47.1816 7.63184L69.5453 29.2108L47.1816 50.7897" stroke="black" stroke-width="2" stroke-miterlimit="10"/>
<path d="M47.1816 7.63184L69.5453 29.2108L47.1816 50.7897" stroke="black" stroke-opacity="0.2" stroke-width="2" stroke-miterlimit="10"/>
<path d="M69.5459 7.63184L91.6368 29.2108L69.5459 50.7897" stroke="black" stroke-width="2" stroke-miterlimit="10"/>
<path d="M69.5459 7.63184L91.6368 29.2108L69.5459 50.7897" stroke="black" stroke-opacity="0.2" stroke-width="2" stroke-miterlimit="10"/>
<path d="M91.6357 7.63184L113.999 29.2108L91.6357 50.7897" stroke="black" stroke-width="2" stroke-miterlimit="10"/>
<path d="M91.6357 7.63184L113.999 29.2108L91.6357 50.7897" stroke="black" stroke-opacity="0.2" stroke-width="2" stroke-miterlimit="10"/>
<path d="M785.84 0H765.459V76.9935H785.84V0Z" fill="black"/>
<path d="M785.84 0H765.459V76.9935H785.84V0Z" fill="black" fill-opacity="0.2"/>
<path d="M813.994 48.699V28.3184H737V48.699H813.994Z" fill="black"/>
<path d="M813.994 48.699V28.3184H737V48.699H813.994Z" fill="black" fill-opacity="0.2"/>
</svg>
