<svg width="267" height="271" viewBox="0 0 267 271" fill="none" xmlns="http://www.w3.org/2000/svg">
    <g id="loading" clip-path="url(#clip0_3_5)" filter="url(#filter0_d_3_5)">
        <g id="dark">
            <path id="small1" d="M24.07 102.2C24.07 91.0052 28.5171 80.2689 36.433 72.353C44.3489 64.4371 55.0852 59.99 66.28 59.99C77.4748 59.99 88.2111 64.4371 96.127 72.353C104.043 80.2689 108.49 91.0052 108.49 102.2V144.45H66.23C60.6874 144.445 55.2001 143.348 50.0815 141.221C44.9629 139.095 40.3133 135.981 36.3983 132.058C32.4832 128.135 29.3794 123.478 27.2641 118.355C25.1488 113.232 24.0634 107.743 24.07 102.2Z" fill="#3B3835"/>
        </g>
        <g id="gray">
            <path id="mid" opacity="0.74" d="M4 210.33C4 224.174 9.49963 237.452 19.289 247.241C29.0784 257.03 42.3557 262.53 56.2 262.53C70.0443 262.53 83.3216 257.03 93.111 247.241C102.9 237.452 108.4 224.174 108.4 210.33V158.12H56.14C42.3052 158.139 29.0433 163.647 19.2672 173.437C9.49106 183.226 3.99999 196.495 4 210.33Z" fill="#706F6F"/>
        </g>
        <g id="light">
            <path id="big" d="M262.9 72.51C262.9 32.47 229.81 0 189 0C148.19 0 115.14 32.42 115.09 72.43V145H189.09C229.85 145 262.9 112.53 262.9 72.51Z" fill="#DADADA"/>
        </g>
    </g>
</svg>
