<svg width="1218" height="329" viewBox="0 0 1218 329" fill="none" xmlns="http://www.w3.org/2000/svg">
<g clip-path="url(#clip0_259_28)">
<path fill-rule="evenodd" clip-rule="evenodd" d="M983.043 53.7073C965.303 45.1765 945.003 40.3349 923.435 40.3349C922.216 40.3349 921.228 41.2159 921.228 42.3028C921.228 61.5374 926.657 79.6413 936.223 95.4622C916.077 95.9847 895.782 100.844 877.104 110.461C876.048 111.004 875.687 112.208 876.296 113.149C887.08 129.807 901.932 143.064 919.086 152.5C901.932 161.936 887.08 175.193 876.296 191.851C875.687 192.792 876.048 193.996 877.104 194.539C895.782 204.156 916.077 209.015 936.223 209.538C926.657 225.358 921.228 243.462 921.228 262.697C921.228 263.783 922.216 264.664 923.435 264.664C945.003 264.664 965.303 259.823 983.043 251.292C983.629 269.26 989.077 287.359 999.861 304.016C1000.47 304.956 1001.82 305.28 1002.88 304.737C1021.55 295.118 1036.42 281.873 1047 266.575C1057.58 281.873 1072.45 295.118 1091.12 304.737C1092.18 305.28 1093.53 304.956 1094.14 304.016C1104.92 287.359 1110.37 269.26 1110.96 251.292C1128.7 259.823 1149 264.664 1170.57 264.664C1171.78 264.664 1172.77 263.783 1172.77 262.697C1172.77 243.462 1167.34 225.358 1157.78 209.538C1177.92 209.015 1198.22 204.156 1216.9 194.539C1217.95 193.996 1218.31 192.792 1217.7 191.851C1206.92 175.193 1192.07 161.936 1174.91 152.5C1192.07 143.064 1206.92 129.807 1217.7 113.149C1218.31 112.208 1217.95 111.004 1216.9 110.461C1198.22 100.844 1177.92 95.9847 1157.78 95.4622C1167.34 79.6413 1172.77 61.5374 1172.77 42.3028C1172.77 41.2159 1171.78 40.3349 1170.57 40.3349C1149 40.3349 1128.7 45.1765 1110.96 53.7075C1110.37 35.7409 1104.92 17.6418 1094.14 0.98423C1093.53 0.0430445 1092.18 -0.279429 1091.12 0.263963C1072.45 9.88126 1057.58 23.1262 1047 38.4245C1036.42 23.1262 1021.55 9.88126 1002.88 0.263963C1001.82 -0.279429 1000.47 0.0430445 999.861 0.98423C989.077 17.6418 983.629 35.7409 983.043 53.7073ZM1035.21 134.29C1025.98 124.729 1015.17 116.814 1003.34 110.677C993.572 95.3691 988.123 78.1253 987.47 60.546C1004.21 69.8397 1018.24 82.6698 1028.22 97.865C1028.26 110.071 1030.54 122.378 1035.21 134.29ZM1028.45 90.7479C1017.92 76.5437 1003.87 64.5999 987.41 55.9088C987.6 38.5102 992.505 20.9212 1002.59 4.68059C1020.42 14.25 1034.53 27.2952 1044.45 42.2779C1035.07 57.1461 1029.6 73.7543 1028.45 90.7479ZM1033 105.897C1034.13 118.786 1037.87 131.662 1044.42 143.9C1043.22 130.382 1039.25 117.562 1033 105.897ZM994.746 140.013C1009.2 141.019 1023.63 144.357 1037.36 150.195C1022.2 149.132 1007.82 145.586 994.746 140.013ZM985.739 135.75C999.425 135.79 1013.22 137.824 1026.58 141.986C1015.86 133.752 1006.99 124.111 1000.1 113.56C982.939 104.852 963.604 99.9926 943.892 99.4106C954.313 114.344 968.7 126.847 985.739 135.75ZM938.692 99.3563C948.438 114.039 961.83 126.569 977.758 135.954C958.702 136.979 940.079 141.858 923.407 150.228C906.607 141.382 891.979 128.799 881.248 112.892C899.459 103.901 919.182 99.5263 938.692 99.3563ZM941.239 95.4216C960.37 95.6071 979.234 99.686 996.311 107.295C987.779 92.0649 983.205 75.2419 982.997 58.1804C966.006 49.6284 946.474 44.6222 925.662 44.2883C926.036 62.8489 931.65 80.2688 941.239 95.4216ZM1106.59 55.9088C1106.4 38.5102 1101.49 20.9213 1091.41 4.68059C1073.58 14.25 1059.47 27.2952 1049.55 42.2779C1058.93 57.1461 1064.4 73.7545 1065.55 90.7481C1076.08 76.5439 1090.13 64.6002 1106.59 55.9088ZM1065.78 97.8655C1075.76 82.67 1089.79 69.8399 1106.53 60.5462C1105.88 78.1255 1100.43 95.3691 1090.66 110.677C1078.83 116.814 1068.02 124.729 1058.79 134.29C1063.46 122.378 1065.74 110.071 1065.78 97.8655ZM1049.58 143.899C1056.13 131.661 1059.87 118.787 1061 105.898C1054.75 117.563 1050.78 130.382 1049.58 143.899ZM1061.37 96.8102C1054.56 107.4 1049.64 119.075 1047 131.472C1044.36 119.075 1039.44 107.4 1032.63 96.8098C1032.76 79.1988 1037.71 61.836 1047 46.3209C1056.29 61.8362 1061.24 79.199 1061.37 96.8102ZM1111 58.1806C1127.99 49.6286 1147.53 44.6222 1168.34 44.2883C1167.96 62.8489 1162.35 80.2688 1152.76 95.4216C1133.63 95.6071 1114.77 99.6858 1097.69 107.295C1106.22 92.0649 1110.79 75.2419 1111 58.1806ZM1150.11 99.4106C1130.4 99.9926 1111.06 104.852 1093.9 113.56C1087.01 124.111 1078.14 133.752 1067.42 141.986C1080.78 137.824 1094.58 135.79 1108.26 135.75C1125.3 126.847 1139.69 114.344 1150.11 99.4106ZM1056.64 150.195C1071.8 149.132 1086.18 145.586 1099.25 140.013C1084.8 141.019 1070.37 144.357 1056.64 150.195ZM1109.44 139.688C1129.19 139.801 1148.66 144.214 1166.06 152.5C1148.66 160.785 1129.19 165.199 1109.45 165.312C1097.57 159.242 1084.48 154.851 1070.58 152.5C1084.48 150.148 1097.57 145.757 1109.44 139.688ZM1056.64 154.804C1070.37 160.643 1084.8 163.981 1099.26 164.987C1086.18 159.413 1071.8 155.867 1056.64 154.804ZM1108.26 169.25C1125.3 178.153 1139.69 190.656 1150.11 205.589C1130.4 205.007 1111.06 200.148 1093.9 191.44C1087.02 180.889 1078.14 171.248 1067.42 163.014C1080.78 167.176 1094.58 169.211 1108.26 169.25ZM1155.31 205.643C1145.56 190.961 1132.17 178.431 1116.24 169.046C1135.3 168.021 1153.92 163.141 1170.59 154.772C1187.39 163.618 1202.02 176.201 1212.75 192.108C1194.54 201.099 1174.82 205.473 1155.31 205.643ZM1152.76 209.578C1133.63 209.393 1114.77 205.314 1097.69 197.705C1106.22 212.935 1110.79 229.758 1111 246.819C1127.99 255.37 1147.53 260.378 1168.34 260.71C1167.96 242.152 1162.35 224.731 1152.76 209.578ZM1106.53 244.453C1105.88 226.874 1100.43 209.631 1090.66 194.323C1078.83 188.186 1068.02 180.271 1058.79 170.71C1063.46 182.622 1065.74 194.928 1065.78 207.134C1075.76 222.329 1089.79 235.16 1106.53 244.453ZM1049.58 161.101C1050.78 174.618 1054.75 187.437 1061 199.101C1059.87 186.213 1056.13 173.338 1049.58 161.101ZM1061.37 208.189C1061.24 225.8 1056.29 243.164 1047 258.679C1037.71 243.164 1032.76 225.801 1032.63 208.189C1039.44 197.599 1044.36 185.924 1047 173.527C1049.64 185.924 1054.56 197.599 1061.37 208.189ZM1033 199.102C1034.13 186.213 1037.87 173.338 1044.42 161.101C1043.22 174.618 1039.25 187.437 1033 199.102ZM1028.22 207.134C1018.24 222.33 1004.21 235.16 987.47 244.453C988.123 226.874 993.572 209.631 1003.34 194.323C1015.17 188.186 1025.98 180.271 1035.21 170.71C1030.54 182.622 1028.26 194.928 1028.22 207.134ZM987.409 249.09C1003.87 240.4 1017.92 228.456 1028.45 214.251C1029.6 231.245 1035.07 247.854 1044.45 262.723C1034.53 277.705 1020.42 290.75 1002.59 300.319C992.505 284.077 987.6 266.489 987.409 249.09ZM982.997 246.819C983.205 229.758 987.779 212.935 996.311 197.705C979.233 205.314 960.37 209.393 941.239 209.578C931.649 224.731 926.036 242.152 925.662 260.71C946.474 260.378 966.006 255.37 982.997 246.819ZM943.891 205.589C963.603 205.007 982.938 200.148 1000.1 191.44C1006.98 180.889 1015.86 171.248 1026.58 163.014C1013.22 167.176 999.424 169.21 985.737 169.25C968.699 178.153 954.312 190.656 943.891 205.589ZM984.554 165.312C964.807 165.199 945.338 160.785 927.94 152.5C945.338 144.214 964.808 139.801 984.555 139.688C996.43 145.757 1009.52 150.148 1023.42 152.5C1009.52 154.851 996.429 159.242 984.554 165.312ZM994.744 164.987C1007.82 159.413 1022.2 155.867 1037.36 154.804C1023.63 160.643 1009.2 163.981 994.744 164.987ZM977.757 169.046C961.83 178.431 948.437 190.961 938.691 205.643C919.182 205.473 899.459 201.099 881.248 192.108C891.979 176.201 906.607 163.618 923.407 154.772C940.079 163.141 958.702 168.021 977.757 169.046ZM1065.55 214.251C1076.08 228.455 1090.13 240.4 1106.59 249.09C1106.4 266.489 1101.49 284.077 1091.41 300.319C1073.58 290.75 1059.47 277.705 1049.55 262.723C1058.93 247.854 1064.4 231.245 1065.55 214.251ZM1116.24 135.954C1132.17 126.569 1145.56 114.039 1155.31 99.3563C1174.82 99.5263 1194.54 103.901 1212.75 112.892C1202.02 128.799 1187.39 141.382 1170.59 150.228C1153.92 141.858 1135.3 136.979 1116.24 135.954ZM1085.25 118.385C1073.3 125.7 1062.67 135.029 1054.06 146.204C1066.59 138.525 1077.05 129.044 1085.25 118.385ZM1085.25 186.615C1077.05 175.956 1066.59 166.475 1054.06 158.796C1062.67 169.971 1073.3 179.3 1085.25 186.615ZM1039.94 158.796C1031.33 169.971 1020.7 179.3 1008.75 186.615C1016.95 175.956 1027.41 166.475 1039.94 158.796ZM1039.94 146.204C1027.41 138.525 1016.95 129.044 1008.75 118.385C1020.7 125.7 1031.33 135.029 1039.94 146.204Z" fill="#F8ECD9"/>
<path fill-rule="evenodd" clip-rule="evenodd" d="M983.043 53.7073C965.303 45.1765 945.003 40.3349 923.435 40.3349C922.216 40.3349 921.228 41.2159 921.228 42.3028C921.228 61.5374 926.657 79.6413 936.223 95.4622C916.077 95.9847 895.782 100.844 877.104 110.461C876.048 111.004 875.687 112.208 876.296 113.149C887.08 129.807 901.932 143.064 919.086 152.5C901.932 161.936 887.08 175.193 876.296 191.851C875.687 192.792 876.048 193.996 877.104 194.539C895.782 204.156 916.077 209.015 936.223 209.538C926.657 225.358 921.228 243.462 921.228 262.697C921.228 263.783 922.216 264.664 923.435 264.664C945.003 264.664 965.303 259.823 983.043 251.292C983.629 269.26 989.077 287.359 999.861 304.016C1000.47 304.956 1001.82 305.28 1002.88 304.737C1021.55 295.118 1036.42 281.873 1047 266.575C1057.58 281.873 1072.45 295.118 1091.12 304.737C1092.18 305.28 1093.53 304.956 1094.14 304.016C1104.92 287.359 1110.37 269.26 1110.96 251.292C1128.7 259.823 1149 264.664 1170.57 264.664C1171.78 264.664 1172.77 263.783 1172.77 262.697C1172.77 243.462 1167.34 225.358 1157.78 209.538C1177.92 209.015 1198.22 204.156 1216.9 194.539C1217.95 193.996 1218.31 192.792 1217.7 191.851C1206.92 175.193 1192.07 161.936 1174.91 152.5C1192.07 143.064 1206.92 129.807 1217.7 113.149C1218.31 112.208 1217.95 111.004 1216.9 110.461C1198.22 100.844 1177.92 95.9847 1157.78 95.4622C1167.34 79.6413 1172.77 61.5374 1172.77 42.3028C1172.77 41.2159 1171.78 40.3349 1170.57 40.3349C1149 40.3349 1128.7 45.1765 1110.96 53.7075C1110.37 35.7409 1104.92 17.6418 1094.14 0.98423C1093.53 0.0430445 1092.18 -0.279429 1091.12 0.263963C1072.45 9.88126 1057.58 23.1262 1047 38.4245C1036.42 23.1262 1021.55 9.88126 1002.88 0.263963C1001.82 -0.279429 1000.47 0.0430445 999.861 0.98423C989.077 17.6418 983.629 35.7409 983.043 53.7073ZM1035.21 134.29C1025.98 124.729 1015.17 116.814 1003.34 110.677C993.572 95.3691 988.123 78.1253 987.47 60.546C1004.21 69.8397 1018.24 82.6698 1028.22 97.865C1028.26 110.071 1030.54 122.378 1035.21 134.29ZM1028.45 90.7479C1017.92 76.5437 1003.87 64.5999 987.41 55.9088C987.6 38.5102 992.505 20.9212 1002.59 4.68059C1020.42 14.25 1034.53 27.2952 1044.45 42.2779C1035.07 57.1461 1029.6 73.7543 1028.45 90.7479ZM1033 105.897C1034.13 118.786 1037.87 131.662 1044.42 143.9C1043.22 130.382 1039.25 117.562 1033 105.897ZM994.746 140.013C1009.2 141.019 1023.63 144.357 1037.36 150.195C1022.2 149.132 1007.82 145.586 994.746 140.013ZM985.739 135.75C999.425 135.79 1013.22 137.824 1026.58 141.986C1015.86 133.752 1006.99 124.111 1000.1 113.56C982.939 104.852 963.604 99.9926 943.892 99.4106C954.313 114.344 968.7 126.847 985.739 135.75ZM938.692 99.3563C948.438 114.039 961.83 126.569 977.758 135.954C958.702 136.979 940.079 141.858 923.407 150.228C906.607 141.382 891.979 128.799 881.248 112.892C899.459 103.901 919.182 99.5263 938.692 99.3563ZM941.239 95.4216C960.37 95.6071 979.234 99.686 996.311 107.295C987.779 92.0649 983.205 75.2419 982.997 58.1804C966.006 49.6284 946.474 44.6222 925.662 44.2883C926.036 62.8489 931.65 80.2688 941.239 95.4216ZM1106.59 55.9088C1106.4 38.5102 1101.49 20.9213 1091.41 4.68059C1073.58 14.25 1059.47 27.2952 1049.55 42.2779C1058.93 57.1461 1064.4 73.7545 1065.55 90.7481C1076.08 76.5439 1090.13 64.6002 1106.59 55.9088ZM1065.78 97.8655C1075.76 82.67 1089.79 69.8399 1106.53 60.5462C1105.88 78.1255 1100.43 95.3691 1090.66 110.677C1078.83 116.814 1068.02 124.729 1058.79 134.29C1063.46 122.378 1065.74 110.071 1065.78 97.8655ZM1049.58 143.899C1056.13 131.661 1059.87 118.787 1061 105.898C1054.75 117.563 1050.78 130.382 1049.58 143.899ZM1061.37 96.8102C1054.56 107.4 1049.64 119.075 1047 131.472C1044.36 119.075 1039.44 107.4 1032.63 96.8098C1032.76 79.1988 1037.71 61.836 1047 46.3209C1056.29 61.8362 1061.24 79.199 1061.37 96.8102ZM1111 58.1806C1127.99 49.6286 1147.53 44.6222 1168.34 44.2883C1167.96 62.8489 1162.35 80.2688 1152.76 95.4216C1133.63 95.6071 1114.77 99.6858 1097.69 107.295C1106.22 92.0649 1110.79 75.2419 1111 58.1806ZM1150.11 99.4106C1130.4 99.9926 1111.06 104.852 1093.9 113.56C1087.01 124.111 1078.14 133.752 1067.42 141.986C1080.78 137.824 1094.58 135.79 1108.26 135.75C1125.3 126.847 1139.69 114.344 1150.11 99.4106ZM1056.64 150.195C1071.8 149.132 1086.18 145.586 1099.25 140.013C1084.8 141.019 1070.37 144.357 1056.64 150.195ZM1109.44 139.688C1129.19 139.801 1148.66 144.214 1166.06 152.5C1148.66 160.785 1129.19 165.199 1109.45 165.312C1097.57 159.242 1084.48 154.851 1070.58 152.5C1084.48 150.148 1097.57 145.757 1109.44 139.688ZM1056.64 154.804C1070.37 160.643 1084.8 163.981 1099.26 164.987C1086.18 159.413 1071.8 155.867 1056.64 154.804ZM1108.26 169.25C1125.3 178.153 1139.69 190.656 1150.11 205.589C1130.4 205.007 1111.06 200.148 1093.9 191.44C1087.02 180.889 1078.14 171.248 1067.42 163.014C1080.78 167.176 1094.58 169.211 1108.26 169.25ZM1155.31 205.643C1145.56 190.961 1132.17 178.431 1116.24 169.046C1135.3 168.021 1153.92 163.141 1170.59 154.772C1187.39 163.618 1202.02 176.201 1212.75 192.108C1194.54 201.099 1174.82 205.473 1155.31 205.643ZM1152.76 209.578C1133.63 209.393 1114.77 205.314 1097.69 197.705C1106.22 212.935 1110.79 229.758 1111 246.819C1127.99 255.37 1147.53 260.378 1168.34 260.71C1167.96 242.152 1162.35 224.731 1152.76 209.578ZM1106.53 244.453C1105.88 226.874 1100.43 209.631 1090.66 194.323C1078.83 188.186 1068.02 180.271 1058.79 170.71C1063.46 182.622 1065.74 194.928 1065.78 207.134C1075.76 222.329 1089.79 235.16 1106.53 244.453ZM1049.58 161.101C1050.78 174.618 1054.75 187.437 1061 199.101C1059.87 186.213 1056.13 173.338 1049.58 161.101ZM1061.37 208.189C1061.24 225.8 1056.29 243.164 1047 258.679C1037.71 243.164 1032.76 225.801 1032.63 208.189C1039.44 197.599 1044.36 185.924 1047 173.527C1049.64 185.924 1054.56 197.599 1061.37 208.189ZM1033 199.102C1034.13 186.213 1037.87 173.338 1044.42 161.101C1043.22 174.618 1039.25 187.437 1033 199.102ZM1028.22 207.134C1018.24 222.33 1004.21 235.16 987.47 244.453C988.123 226.874 993.572 209.631 1003.34 194.323C1015.17 188.186 1025.98 180.271 1035.21 170.71C1030.54 182.622 1028.26 194.928 1028.22 207.134ZM987.409 249.09C1003.87 240.4 1017.92 228.456 1028.45 214.251C1029.6 231.245 1035.07 247.854 1044.45 262.723C1034.53 277.705 1020.42 290.75 1002.59 300.319C992.505 284.077 987.6 266.489 987.409 249.09ZM982.997 246.819C983.205 229.758 987.779 212.935 996.311 197.705C979.233 205.314 960.37 209.393 941.239 209.578C931.649 224.731 926.036 242.152 925.662 260.71C946.474 260.378 966.006 255.37 982.997 246.819ZM943.891 205.589C963.603 205.007 982.938 200.148 1000.1 191.44C1006.98 180.889 1015.86 171.248 1026.58 163.014C1013.22 167.176 999.424 169.21 985.737 169.25C968.699 178.153 954.312 190.656 943.891 205.589ZM984.554 165.312C964.807 165.199 945.338 160.785 927.94 152.5C945.338 144.214 964.808 139.801 984.555 139.688C996.43 145.757 1009.52 150.148 1023.42 152.5C1009.52 154.851 996.429 159.242 984.554 165.312ZM994.744 164.987C1007.82 159.413 1022.2 155.867 1037.36 154.804C1023.63 160.643 1009.2 163.981 994.744 164.987ZM977.757 169.046C961.83 178.431 948.437 190.961 938.691 205.643C919.182 205.473 899.459 201.099 881.248 192.108C891.979 176.201 906.607 163.618 923.407 154.772C940.079 163.141 958.702 168.021 977.757 169.046ZM1065.55 214.251C1076.08 228.455 1090.13 240.4 1106.59 249.09C1106.4 266.489 1101.49 284.077 1091.41 300.319C1073.58 290.75 1059.47 277.705 1049.55 262.723C1058.93 247.854 1064.4 231.245 1065.55 214.251ZM1116.24 135.954C1132.17 126.569 1145.56 114.039 1155.31 99.3563C1174.82 99.5263 1194.54 103.901 1212.75 112.892C1202.02 128.799 1187.39 141.382 1170.59 150.228C1153.92 141.858 1135.3 136.979 1116.24 135.954ZM1085.25 118.385C1073.3 125.7 1062.67 135.029 1054.06 146.204C1066.59 138.525 1077.05 129.044 1085.25 118.385ZM1085.25 186.615C1077.05 175.956 1066.59 166.475 1054.06 158.796C1062.67 169.971 1073.3 179.3 1085.25 186.615ZM1039.94 158.796C1031.33 169.971 1020.7 179.3 1008.75 186.615C1016.95 175.956 1027.41 166.475 1039.94 158.796ZM1039.94 146.204C1027.41 138.525 1016.95 129.044 1008.75 118.385C1020.7 125.7 1031.33 135.029 1039.94 146.204Z" fill="#F8ECD9"/>
</g>
<g clip-path="url(#clip1_259_28)">
<path d="M65.8785 231.766C69.26 254.722 69.5811 279.305 57.0647 297.796C50.3815 307.669 38.2853 311.966 32.2595 297.921C28.1555 288.355 25.9131 270.904 34.448 264.511C43.873 257.452 37.6117 287.683 36.4448 290.74C30.9832 305.052 23.3629 314.602 13.3913 324.092C9.65604 327.648 12.5156 327.741 15.5857 326.704C18.2495 325.805 21.2568 324.694 23.5989 322.956C24.3133 322.426 19.1953 324.598 18.4034 324.99C15.0077 326.667 11.0274 328.438 9.97962 322.496C9.81133 321.542 8.87133 312.533 9.92075 312.085C10.4668 311.851 13.7168 317.082 14.2914 317.684C18.0235 321.592 20.8733 322.599 25.4133 321.365" stroke="#F8ECD9" stroke-width="2" stroke-linecap="round"/>
</g>
<defs>
<clipPath id="clip0_259_28">
<rect width="342" height="305" fill="white" transform="translate(876)"/>
</clipPath>
<clipPath id="clip1_259_28">
<rect width="67.3581" height="90.8795" fill="white" transform="translate(76.6816 321.359) rotate(173.867)"/>
</clipPath>
</defs>
</svg>
