<svg width="931" height="380" viewBox="0 0 931 380" fill="none" xmlns="http://www.w3.org/2000/svg">
<path d="M253.741 302.593L291.164 317.371" stroke="#9D9D9D" stroke-width="1.1533" stroke-miterlimit="10" stroke-linecap="round" stroke-linejoin="round"/>
<path d="M124.13 252.629L193.499 279.722" stroke="#9D9D9D" stroke-width="1.1533" stroke-miterlimit="10" stroke-linecap="round" stroke-linejoin="round"/>
<path d="M240.968 256.147L502.926 356.778" stroke="#9D9D9D" stroke-width="1.1533" stroke-miterlimit="10" stroke-linecap="round" stroke-linejoin="round"/>
<path d="M107.702 204.778L161.554 225.186" stroke="#9D9D9D" stroke-width="1.1533" stroke-miterlimit="10" stroke-linecap="round" stroke-linejoin="round"/>
<path d="M428.99 286.407L659.002 375.074" stroke="black" stroke-width="1.1533" stroke-miterlimit="10" stroke-linecap="round" stroke-linejoin="round"/>
<path d="M428.99 286.407L659.002 375.074" stroke="black" stroke-opacity="0.2" stroke-width="1.1533" stroke-miterlimit="10" stroke-linecap="round" stroke-linejoin="round"/>
<path d="M82.147 152.703L327.675 246.999" stroke="black" stroke-width="1.1533" stroke-miterlimit="10" stroke-linecap="round" stroke-linejoin="round"/>
<path d="M82.147 152.703L327.675 246.999" stroke="black" stroke-opacity="0.2" stroke-width="1.1533" stroke-miterlimit="10" stroke-linecap="round" stroke-linejoin="round"/>
<path d="M274.732 184.723L679.991 340.945" stroke="#9D9D9D" stroke-width="1.1533" stroke-miterlimit="10" stroke-linecap="round" stroke-linejoin="round"/>
<path d="M106.793 119.981L192.591 153.056" stroke="#9D9D9D" stroke-width="1.1533" stroke-miterlimit="10" stroke-linecap="round" stroke-linejoin="round"/>
<path d="M609.712 271.63L706.463 309.278" stroke="#9D9D9D" stroke-width="1.1533" stroke-miterlimit="10" stroke-linecap="round" stroke-linejoin="round"/>
<path d="M9.12744 40.4629L506.573 232.222" stroke="#9D9D9D" stroke-width="1.1533" stroke-miterlimit="10" stroke-linecap="round" stroke-linejoin="round"/>
<path d="M407.999 152.001L894.492 339.538" stroke="black" stroke-width="1.1533" stroke-miterlimit="10" stroke-linecap="round" stroke-linejoin="round"/>
<path d="M407.999 152.001L894.492 339.538" stroke="black" stroke-opacity="0.2" stroke-width="1.1533" stroke-miterlimit="10" stroke-linecap="round" stroke-linejoin="round"/>
<path d="M193.504 69.3154L306.684 112.945" stroke="black" stroke-width="1.1533" stroke-miterlimit="10" stroke-linecap="round" stroke-linejoin="round"/>
<path d="M193.504 69.3154L306.684 112.945" stroke="black" stroke-opacity="0.2" stroke-width="1.1533" stroke-miterlimit="10" stroke-linecap="round" stroke-linejoin="round"/>
<path d="M502.919 146.371L816.903 267.408" stroke="#9D9D9D" stroke-width="1.1533" stroke-miterlimit="10" stroke-linecap="round" stroke-linejoin="round"/>
<path d="M182.549 22.8701L414.386 112.24" stroke="#9D9D9D" stroke-width="1.1533" stroke-miterlimit="10" stroke-linecap="round" stroke-linejoin="round"/>
<path d="M761.233 204.074L925.523 267.408" stroke="black" stroke-width="1.1533" stroke-miterlimit="10" stroke-linecap="round" stroke-linejoin="round"/>
<path d="M761.233 204.074L925.523 267.408" stroke="black" stroke-opacity="0.2" stroke-width="1.1533" stroke-miterlimit="10" stroke-linecap="round" stroke-linejoin="round"/>
<path d="M324.024 35.5352L642.572 157.98" stroke="black" stroke-width="1.1533" stroke-miterlimit="10" stroke-linecap="round" stroke-linejoin="round"/>
<path d="M324.024 35.5352L642.572 157.98" stroke="black" stroke-opacity="0.2" stroke-width="1.1533" stroke-miterlimit="10" stroke-linecap="round" stroke-linejoin="round"/>
<path d="M602.412 100.628L824.209 186.128" stroke="#9D9D9D" stroke-width="1.1533" stroke-miterlimit="10" stroke-linecap="round" stroke-linejoin="round"/>
<path d="M350.498 3.51855L515.704 67.2037" stroke="#9D9D9D" stroke-width="1.1533" stroke-miterlimit="10" stroke-linecap="round" stroke-linejoin="round"/>
<path d="M799.561 134.408L885.359 167.834" stroke="black" stroke-width="1.1533" stroke-miterlimit="10" stroke-linecap="round" stroke-linejoin="round"/>
<path d="M799.561 134.408L885.359 167.834" stroke="black" stroke-opacity="0.2" stroke-width="1.1533" stroke-miterlimit="10" stroke-linecap="round" stroke-linejoin="round"/>
<path d="M482.846 12.3145L700.992 96.7589" stroke="black" stroke-width="1.1533" stroke-miterlimit="10" stroke-linecap="round" stroke-linejoin="round"/>
<path d="M482.846 12.3145L700.992 96.7589" stroke="black" stroke-opacity="0.2" stroke-width="1.1533" stroke-miterlimit="10" stroke-linecap="round" stroke-linejoin="round"/>
<path d="M754.842 75.2979L807.781 95.7053" stroke="#9D9D9D" stroke-width="1.1533" stroke-miterlimit="10" stroke-linecap="round" stroke-linejoin="round"/>
<path d="M661.74 39.4082L698.25 53.4823" stroke="#9D9D9D" stroke-width="1.1533" stroke-miterlimit="10" stroke-linecap="round" stroke-linejoin="round"/>
</svg>
